<svg width="1920" height="1080" viewBox="0 0 1920 1080" fill="none" xmlns="http://www.w3.org/2000/svg">
<g clip-path="url(#clip0_4_3496)">
<path d="M1351 29.9549C1951.28 226.187 2558.69 -166.304 3159 29.9549C3159 346.761 3159 663.567 3159 980.373C2558.69 784.14 1951.28 1176.63 1351 980.373C1351 663.567 1351 346.761 1351 29.9549Z" fill="white"/>
<path d="M1351 29.9549C1951.28 226.187 2558.69 -166.304 3159 29.9549C3159 59.1832 3159 73.8237 3159 103.052C2558.69 -93.1804 1951.28 299.284 1351 103.052C1351 73.8237 1351 59.1832 1351 29.9549Z" fill="#E71731"/>
<path d="M1351 176.175C1951.28 372.408 2558.69 -20.0832 3159 176.175C3159 205.404 3159 220.044 3159 249.272C2558.69 53.0398 1951.28 445.505 1351 249.272C1351 220.044 1351 205.404 1351 176.175Z" fill="#E71731"/>
<path d="M1351 322.395C1951.28 518.628 2558.69 126.163 3159 322.395C3159 351.624 3159 366.264 3159 395.492C2558.69 199.26 1951.28 591.725 1351 395.492C1351 366.264 1351 351.624 1351 322.395Z" fill="#E71731"/>
<path d="M1351 468.615C1951.28 664.848 2558.69 272.383 3159 468.615C3159 497.844 3159 512.484 3159 541.712C2558.69 345.48 1951.28 737.945 1351 541.712C1351 512.484 1351 497.844 1351 468.615Z" fill="#E71731"/>
<path d="M1351 614.836C1951.28 811.068 2558.69 418.603 3159 614.836C3159 644.064 3159 658.704 3159 687.933C2558.69 491.7 1951.28 884.165 1351 687.933C1351 658.704 1351 644.064 1351 614.836Z" fill="#E71731"/>
<path d="M1351 761.056C1951.28 957.288 2558.69 564.823 3159 761.056C3159 790.31 3159 804.924 3159 834.179C2558.69 637.92 1951.28 1030.39 1351 834.179C1351 804.924 1351 790.31 1351 761.056Z" fill="#E71731"/>
<path d="M1351 907.276C1951.28 1103.51 2558.69 711.043 3159 907.276C3159 936.53 3159 951.144 3159 980.373C2558.69 784.14 1951.28 1176.63 1351 980.373C1351 951.144 1351 936.53 1351 907.276Z" fill="#E71731"/>
<path d="M1351 29.955C1588.28 107.679 1829.53 96.3333 2073.34 60.177C2073.34 230.789 2073.34 401.375 2073.34 571.96C1829.53 608.117 1588.28 619.463 1351 541.712C1351 371.127 1351 200.541 1351 29.955Z" fill="#304F7D"/>
<path d="M1384.93 82.608C1391.81 89.7452 1395.26 93.2745 1402.14 100.255C1399.52 107.601 1398.19 111.261 1395.57 118.555C1402.45 115.601 1405.9 114.085 1412.78 111C1419.65 117.928 1423.1 121.353 1429.98 128.15C1427.37 119.366 1426.03 114.974 1423.42 106.189C1430.29 103.026 1433.74 101.405 1440.62 98.111C1432.12 95.9934 1427.86 94.8955 1419.37 92.5949C1416.72 83.7845 1415.42 79.3663 1412.78 70.556C1410.16 77.9023 1408.83 81.5885 1406.21 88.9348C1397.69 86.5034 1393.46 85.2485 1384.93 82.608Z" fill="white"/>
<path d="M1504.7 111.993C1511.57 118.267 1515.02 121.378 1521.9 127.522C1519.26 135.182 1517.95 138.999 1515.34 146.633C1522.21 142.842 1525.66 140.907 1532.54 137.012C1539.42 143.104 1542.87 146.11 1549.74 152.097C1547.1 143.626 1545.79 139.391 1543.18 130.921C1550.06 126.947 1553.48 124.934 1560.38 120.856C1551.86 119.705 1547.62 119.104 1539.1 117.797C1536.49 109.3 1535.15 105.065 1532.54 96.5422C1529.9 104.228 1528.59 108.045 1525.95 115.705C1517.45 114.32 1513.19 113.562 1504.7 111.993Z" fill="white"/>
<path d="M1624.46 127.653C1631.34 133.221 1634.76 135.967 1641.66 141.404C1639.02 149.326 1637.71 153.3 1635.07 161.195C1641.98 156.672 1645.4 154.398 1652.28 149.796C1659.18 155.208 1662.6 157.875 1669.51 163.182C1666.86 154.973 1665.56 150.868 1662.92 142.659C1669.82 137.98 1673.24 135.627 1680.12 130.895C1671.62 130.581 1667.36 130.398 1658.86 129.927C1656.22 121.718 1654.92 117.588 1652.28 109.352C1649.66 117.274 1648.36 121.248 1645.71 129.169C1637.22 128.646 1632.96 128.333 1624.46 127.653Z" fill="white"/>
<path d="M1744.2 131.81C1751.1 136.777 1754.52 139.234 1761.4 144.097C1758.79 152.228 1757.48 156.306 1754.84 164.437C1761.71 159.339 1765.16 156.751 1772.04 151.6C1778.92 156.411 1782.37 158.816 1789.24 163.574C1786.63 155.574 1785.32 151.574 1782.68 143.574C1789.56 138.346 1793.01 135.731 1799.88 130.424C1791.39 130.79 1787.12 130.947 1778.63 131.182C1775.99 123.182 1774.68 119.156 1772.04 111.13C1769.43 119.287 1768.09 123.365 1765.48 131.522C1756.96 131.679 1752.72 131.757 1744.2 131.81Z" fill="white"/>
<path d="M1863.96 126.634C1870.84 131.13 1874.29 133.352 1881.16 137.745C1878.52 146.058 1877.21 150.215 1874.6 158.529C1881.48 152.96 1884.93 150.163 1891.8 144.568C1898.68 148.934 1902.13 151.13 1909.01 155.443C1906.36 147.627 1905.06 143.705 1902.44 135.862C1909.32 130.215 1912.74 127.366 1919.65 121.666C1911.12 122.529 1906.89 122.947 1898.36 123.732C1895.75 115.889 1894.42 111.967 1891.8 104.098C1889.16 112.438 1887.86 116.594 1885.21 124.908C1876.72 125.64 1872.46 125.98 1863.96 126.634Z" fill="white"/>
<path d="M1444.83 150.476C1451.7 157.169 1455.13 160.463 1462.03 167.025C1459.39 174.528 1458.08 178.266 1455.44 185.743C1462.32 182.345 1465.77 180.619 1472.65 177.116C1479.55 183.6 1482.97 186.815 1489.87 193.194C1487.23 184.593 1485.93 180.279 1483.29 171.626C1490.16 168.044 1493.61 166.241 1500.49 162.528C1491.99 160.933 1487.73 160.071 1479.23 158.293C1476.59 149.639 1475.29 145.326 1472.65 136.672C1470.03 144.175 1468.72 147.94 1466.08 155.443C1457.59 153.561 1453.33 152.567 1444.83 150.476Z" fill="white"/>
<path d="M1564.57 172.724C1571.47 178.633 1574.89 181.535 1581.77 187.338C1579.15 195.129 1577.85 199.025 1575.21 206.789C1582.08 202.632 1585.53 200.515 1592.41 196.227C1599.28 201.979 1602.73 204.802 1609.61 210.449C1607 202.11 1605.66 197.953 1603.05 189.587C1609.92 185.273 1613.38 183.077 1620.25 178.633C1611.75 177.927 1607.49 177.535 1599 176.698C1596.36 168.332 1595.05 164.149 1592.41 155.784C1589.79 163.6 1588.46 167.496 1585.85 175.286C1577.32 174.345 1573.09 173.822 1564.57 172.724Z" fill="white"/>
<path d="M1684.33 182.371C1691.2 187.6 1694.65 190.188 1701.53 195.338C1698.92 203.391 1697.58 207.39 1694.97 215.417C1701.84 210.606 1705.3 208.175 1712.17 203.26C1719.05 208.358 1722.5 210.894 1729.37 215.913C1726.73 207.809 1725.43 203.757 1722.81 195.652C1729.69 190.685 1733.11 188.201 1740.01 183.155C1731.49 183.208 1727.26 183.182 1718.73 183.103C1716.12 174.999 1714.79 170.92 1712.17 162.816C1709.53 170.868 1708.22 174.894 1705.58 182.92C1697.09 182.763 1692.82 182.659 1684.33 182.371Z" fill="white"/>
<path d="M1804.09 181.587C1810.97 186.293 1814.39 188.619 1821.29 193.247C1818.65 201.482 1817.35 205.587 1814.71 213.822C1821.61 208.462 1825.03 205.77 1831.91 200.358C1838.81 204.959 1842.24 207.234 1849.14 211.756C1846.5 203.861 1845.19 199.887 1842.55 191.966C1849.45 186.528 1852.88 183.783 1859.75 178.267C1851.25 178.894 1846.99 179.208 1838.5 179.731C1835.86 171.809 1834.55 167.835 1831.91 159.914C1829.29 168.149 1827.99 172.28 1825.35 180.515C1816.85 180.986 1812.59 181.195 1804.09 181.587Z" fill="white"/>
<path d="M1384.93 185.273C1391.81 192.384 1395.26 195.913 1402.14 202.92C1399.52 210.24 1398.19 213.9 1395.57 221.22C1402.45 218.266 1405.9 216.75 1412.78 213.665C1419.65 220.567 1423.1 223.991 1429.98 230.789C1427.37 222.005 1426.03 217.612 1423.42 208.828C1430.29 205.665 1433.74 204.044 1440.62 200.776C1432.12 198.658 1427.86 197.534 1419.37 195.234C1416.72 186.423 1415.42 182.031 1412.78 173.195C1410.16 180.567 1408.83 184.227 1406.21 191.574C1397.69 189.142 1393.46 187.887 1384.93 185.273Z" fill="white"/>
<path d="M1504.7 214.632C1511.57 220.906 1515.02 224.017 1521.9 230.187C1519.28 237.821 1517.95 241.638 1515.34 249.272C1522.21 245.481 1525.66 243.547 1532.54 239.651C1539.42 245.743 1542.87 248.775 1549.74 254.762C1547.1 246.292 1545.79 242.056 1543.18 233.56C1550.06 229.586 1553.48 227.573 1560.38 223.495C1551.86 222.37 1547.62 221.743 1539.1 220.436C1536.49 211.965 1535.15 207.704 1532.54 199.207C1529.9 206.867 1528.59 210.71 1525.95 218.37C1517.45 216.959 1513.19 216.227 1504.7 214.632Z" fill="white"/>
<path d="M1624.46 230.318C1631.34 235.86 1634.76 238.605 1641.66 244.069C1639.02 251.991 1637.71 255.939 1635.07 263.834C1641.98 259.337 1645.4 257.063 1652.28 252.461C1659.18 257.847 1662.6 260.54 1669.51 265.847C1666.86 257.638 1665.56 253.507 1662.92 245.298C1669.82 240.645 1673.24 238.292 1680.12 233.534C1671.62 233.22 1667.36 233.037 1658.86 232.592C1656.22 224.357 1654.92 220.227 1652.28 211.991C1649.66 219.939 1648.36 223.887 1645.71 231.834C1637.22 231.285 1632.96 230.998 1624.46 230.318Z" fill="white"/>
<path d="M1744.2 234.475C1751.1 239.416 1754.52 241.874 1761.4 246.736C1758.79 254.893 1757.48 258.945 1754.84 267.076C1761.71 261.978 1765.16 259.416 1772.04 254.239C1778.92 259.076 1782.37 261.455 1789.24 266.213C1786.63 258.213 1785.32 254.213 1782.68 246.213C1789.56 240.985 1793.01 238.37 1799.88 233.089C1791.39 233.429 1787.12 233.586 1778.63 233.848C1775.99 225.822 1774.68 221.822 1772.04 213.796C1769.43 221.952 1768.09 226.031 1765.48 234.161C1756.96 234.344 1752.72 234.397 1744.2 234.475Z" fill="white"/>
<path d="M1863.96 229.299C1870.84 233.769 1874.29 235.991 1881.16 240.409C1878.52 248.723 1877.21 252.88 1874.6 261.193C1881.48 255.625 1884.93 252.828 1891.8 247.207C1898.68 251.599 1902.13 253.769 1909.01 258.109C1906.36 250.266 1905.06 246.344 1902.44 238.501C1909.32 232.854 1912.74 230.004 1919.65 224.305C1911.12 225.168 1906.89 225.586 1898.36 226.371C1895.75 218.528 1894.42 214.606 1891.8 206.763C1889.16 215.077 1887.86 219.234 1885.21 227.547C1876.72 228.279 1872.46 228.645 1863.96 229.299Z" fill="white"/>
<path d="M1446.29 253.664C1453.17 260.331 1456.62 263.625 1463.49 270.187C1460.88 277.69 1459.55 281.428 1456.93 288.905C1463.81 285.507 1467.26 283.781 1474.13 280.252C1481.01 286.736 1484.46 289.951 1491.34 296.304C1488.72 287.703 1487.39 283.389 1484.77 274.762C1491.65 271.154 1495.1 269.324 1501.98 265.638C1493.45 264.017 1489.22 263.181 1480.7 261.403C1478.08 252.775 1476.78 248.462 1474.13 239.808C1471.49 247.337 1470.19 251.076 1467.57 258.579C1459.05 256.697 1454.79 255.73 1446.29 253.664Z" fill="white"/>
<path d="M1566.05 275.729C1572.93 281.611 1576.38 284.539 1583.26 290.317C1580.62 298.108 1579.31 302.003 1576.7 309.794C1583.57 305.611 1587 303.493 1593.9 299.206C1600.77 304.931 1604.22 307.781 1611.1 313.402C1608.46 305.062 1607.15 300.905 1604.51 292.565C1611.41 288.226 1614.84 286.03 1621.74 281.585C1613.22 280.879 1608.96 280.513 1600.46 279.651C1597.82 271.311 1596.51 267.128 1593.9 258.762C1591.26 266.579 1589.95 270.474 1587.31 278.265C1578.81 277.35 1574.55 276.827 1566.05 275.729Z" fill="white"/>
<path d="M1685.79 285.245C1692.69 290.448 1696.12 293.062 1703.02 298.186C1700.38 306.238 1699.07 310.239 1696.43 318.265C1703.31 313.454 1706.76 310.997 1713.63 306.108C1720.54 311.18 1723.96 313.716 1730.86 318.735C1728.22 310.631 1726.91 306.578 1724.27 298.474C1731.15 293.507 1734.6 291.023 1741.48 285.978C1732.98 286.03 1728.72 286.03 1720.22 285.951C1717.58 277.821 1716.27 273.768 1713.63 265.638C1711.02 273.69 1709.69 277.716 1707.07 285.768C1698.58 285.611 1694.31 285.507 1685.79 285.245Z" fill="white"/>
<path d="M1805.55 284.33C1812.43 289.036 1815.88 291.363 1822.76 295.991C1820.14 304.2 1818.81 308.33 1816.2 316.539C1823.07 311.206 1826.52 308.513 1833.4 303.102C1840.27 307.677 1843.72 309.951 1850.6 314.474C1847.99 306.579 1846.65 302.605 1844.04 294.683C1850.91 289.246 1854.36 286.5 1861.24 280.984C1852.72 281.612 1848.48 281.925 1839.96 282.448C1837.35 274.527 1836.04 270.579 1833.4 262.631C1830.76 270.893 1829.45 274.997 1826.84 283.259C1818.31 283.729 1814.05 283.938 1805.55 284.33Z" fill="white"/>
<path d="M1386.76 288.2C1393.64 295.311 1397.09 298.84 1403.97 305.82C1401.33 313.167 1400.02 316.827 1397.38 324.147C1404.28 321.167 1407.71 319.65 1414.61 316.539C1421.48 323.441 1424.93 326.866 1431.81 333.637C1429.17 324.879 1427.86 320.487 1425.22 311.703C1432.12 308.513 1435.55 306.892 1442.45 303.598C1433.93 301.507 1429.67 300.409 1421.17 298.108C1418.53 289.324 1417.22 284.906 1414.61 276.095C1411.97 283.468 1410.66 287.128 1408.02 294.474C1399.52 292.069 1395.26 290.814 1386.76 288.2Z" fill="white"/>
<path d="M1506.5 317.35C1513.4 323.624 1516.83 326.735 1523.73 332.879C1521.09 340.539 1519.78 344.356 1517.14 351.99C1524.02 348.173 1527.47 346.238 1534.34 342.317C1541.25 348.408 1544.67 351.414 1551.55 357.401C1548.93 348.931 1547.62 344.696 1544.98 336.225C1551.86 332.225 1555.31 330.212 1562.19 326.134C1553.69 325.01 1549.43 324.408 1540.93 323.101C1538.29 314.631 1536.98 310.369 1534.34 301.873C1531.73 309.559 1530.4 313.376 1527.78 321.036C1519.28 319.65 1515.02 318.918 1506.5 317.35Z" fill="white"/>
<path d="M1626.26 332.826C1633.14 338.369 1636.59 341.114 1643.47 346.578C1640.85 354.499 1639.52 358.447 1636.9 366.368C1643.78 361.846 1647.23 359.545 1654.11 354.944C1660.98 360.329 1664.43 362.996 1671.31 368.303C1668.69 360.094 1667.36 355.989 1664.75 347.78C1671.62 343.101 1675.07 340.748 1681.95 335.99C1673.43 335.702 1669.19 335.493 1660.67 335.075C1658.05 326.84 1656.75 322.735 1654.11 314.474C1651.47 322.421 1650.16 326.395 1647.54 334.316C1639.02 333.794 1634.76 333.506 1626.26 332.826Z" fill="white"/>
<path d="M1746.03 336.826C1752.9 341.768 1756.35 344.225 1763.23 349.088C1760.59 357.244 1759.28 361.297 1756.67 369.427C1763.54 364.329 1766.97 361.767 1773.87 356.591C1780.75 361.401 1784.2 363.806 1791.07 368.538C1788.43 360.539 1787.12 356.539 1784.51 348.539C1791.39 343.31 1794.81 340.696 1801.71 335.389C1793.19 335.755 1788.95 335.911 1780.43 336.173C1777.82 328.147 1776.48 324.147 1773.87 316.121C1771.23 324.278 1769.92 328.356 1767.28 336.513C1758.79 336.696 1754.52 336.774 1746.03 336.826Z" fill="white"/>
<path d="M1865.79 331.546C1872.67 336.016 1876.09 338.212 1882.99 342.63C1880.35 350.944 1879.05 355.101 1876.41 363.414C1883.28 357.846 1886.73 355.048 1893.61 349.427C1900.51 353.82 1903.93 355.99 1910.84 360.303C1908.2 352.486 1906.89 348.565 1904.25 340.722C1911.12 335.075 1914.57 332.225 1921.45 326.526C1912.95 327.389 1908.69 327.807 1900.2 328.591C1897.56 320.748 1896.25 316.827 1893.61 308.984C1890.99 317.297 1889.69 321.454 1887.05 329.794C1878.55 330.526 1874.29 330.866 1865.79 331.546Z" fill="white"/>
<path d="M1387.89 389.584C1394.76 396.669 1398.22 400.198 1405.09 407.178C1402.45 414.498 1401.14 418.185 1398.5 425.479C1405.4 422.498 1408.83 420.982 1415.73 417.871C1422.61 424.773 1426.03 428.197 1432.93 434.969C1430.29 426.184 1428.99 421.792 1426.35 413.008C1433.25 409.845 1436.67 408.198 1443.57 404.904C1435.05 402.812 1430.79 401.714 1422.29 399.44C1419.65 390.63 1418.35 386.237 1415.73 377.427C1413.09 384.8 1411.78 388.459 1409.14 395.832C1400.65 393.427 1396.39 392.172 1387.89 389.584Z" fill="white"/>
<path d="M1507.62 418.577C1514.53 424.851 1517.95 427.936 1524.83 434.08C1522.21 441.74 1520.91 445.557 1518.27 453.217C1525.14 449.374 1528.59 447.465 1535.47 443.518C1542.37 449.609 1545.79 452.616 1552.67 458.576C1550.06 450.132 1548.75 445.897 1546.11 437.4C1552.98 433.426 1556.43 431.387 1563.31 427.309C1554.81 426.185 1550.55 425.583 1542.06 424.302C1539.42 415.832 1538.11 411.57 1535.47 403.074C1532.85 410.76 1531.52 414.577 1528.91 422.237C1520.38 420.877 1516.15 420.145 1507.62 418.577Z" fill="white"/>
<path d="M1627.39 433.949C1634.26 439.492 1637.71 442.237 1644.59 447.675C1641.98 455.596 1640.64 459.544 1638.03 467.465C1644.9 462.942 1648.35 460.642 1655.23 456.014C1662.11 461.4 1665.56 464.067 1672.43 469.374C1669.82 461.165 1668.49 457.06 1665.87 448.851C1672.75 444.172 1676.2 441.818 1683.07 437.06C1674.55 436.747 1670.32 436.59 1661.79 436.145C1659.18 427.936 1657.84 423.806 1655.23 415.57C1652.59 423.518 1651.28 427.492 1648.67 435.413C1640.15 434.917 1635.88 434.603 1627.39 433.949Z" fill="white"/>
<path d="M1747.15 437.844C1754.03 442.786 1757.48 445.243 1764.35 450.106C1761.71 458.236 1760.41 462.315 1757.77 470.445C1764.67 465.321 1768.09 462.759 1774.99 457.583C1781.87 462.393 1785.29 464.772 1792.2 469.53C1789.56 461.53 1788.25 457.53 1785.61 449.531C1792.51 444.302 1795.93 441.661 1802.84 436.38C1794.31 436.747 1790.05 436.903 1781.56 437.165C1778.92 429.139 1777.61 425.139 1774.99 417.113C1772.35 425.269 1771.05 429.348 1768.41 437.505C1759.91 437.714 1755.65 437.766 1747.15 437.844Z" fill="white"/>
<path d="M1866.89 432.459C1873.79 436.93 1877.22 439.152 1884.09 443.57C1881.48 451.884 1880.17 456.041 1877.53 464.354C1884.4 458.786 1887.86 455.988 1894.73 450.341C1901.63 454.733 1905.06 456.903 1911.93 461.217C1909.32 453.4 1908.01 449.478 1905.37 441.635C1912.25 435.962 1915.7 433.139 1922.57 427.414C1914.08 428.302 1909.82 428.721 1901.32 429.505C1898.68 421.662 1897.37 417.74 1894.73 409.897C1892.12 418.237 1890.78 422.394 1888.17 430.707C1879.65 431.466 1875.41 431.806 1866.89 432.459Z" fill="white"/>
<path d="M1386.42 491.334C1393.3 498.445 1396.72 501.974 1403.63 508.955C1400.99 516.301 1399.68 519.961 1397.04 527.255C1403.94 524.301 1407.36 522.785 1414.27 519.7C1421.14 526.602 1424.57 530 1431.47 536.797C1428.83 528.013 1427.52 523.621 1424.88 514.837C1431.78 511.674 1435.21 510.053 1442.08 506.759C1433.59 504.641 1429.33 503.543 1420.83 501.242C1418.19 492.458 1416.88 488.04 1414.27 479.23C1411.63 486.602 1410.32 490.262 1407.68 497.609C1399.18 495.203 1394.92 493.949 1386.42 491.334Z" fill="white"/>
<path d="M1506.16 520.536C1513.06 526.811 1516.49 529.896 1523.39 536.039C1520.75 543.699 1519.44 547.516 1516.8 555.15C1523.68 551.359 1527.13 549.425 1534 545.503C1540.9 551.595 1544.33 554.601 1551.21 560.588C1548.59 552.117 1547.28 547.882 1544.64 539.412C1551.52 535.412 1554.97 533.399 1561.85 529.321C1553.35 528.196 1549.09 527.595 1540.59 526.288C1537.95 517.791 1536.64 513.556 1534 505.06C1531.39 512.72 1530.06 516.563 1527.44 524.223C1518.94 522.837 1514.68 522.105 1506.16 520.536Z" fill="white"/>
<path d="M1625.92 536.039C1632.8 541.582 1636.25 544.327 1643.13 549.791C1640.51 557.712 1639.18 561.66 1636.56 569.555C1643.44 565.058 1646.89 562.758 1653.77 558.157C1660.64 563.542 1664.09 566.209 1670.97 571.516C1668.35 563.307 1667.02 559.202 1664.41 550.993C1671.28 546.313 1674.73 543.961 1681.61 539.229C1673.09 538.915 1668.85 538.732 1660.33 538.288C1657.71 530.052 1656.41 525.948 1653.77 517.687C1651.13 525.634 1649.82 529.608 1647.2 537.529C1638.68 537.006 1634.42 536.719 1625.92 536.039Z" fill="white"/>
<path d="M1745.69 540.065C1752.56 545.006 1756.01 547.464 1762.89 552.326C1760.25 560.483 1758.94 564.535 1756.3 572.666C1763.2 567.568 1766.63 565.006 1773.53 559.83C1780.4 564.64 1783.86 567.045 1790.73 571.777C1788.09 563.803 1786.78 559.803 1784.14 551.777C1791.05 546.575 1794.47 543.935 1801.37 538.654C1792.85 538.993 1788.59 539.15 1780.09 539.412C1777.45 531.386 1776.14 527.386 1773.53 519.359C1770.89 527.516 1769.58 531.595 1766.94 539.751C1758.44 539.934 1754.18 540.013 1745.69 540.065Z" fill="white"/>
<path d="M1865.42 534.784C1872.32 539.255 1875.75 541.477 1882.65 545.895C1880.01 554.209 1878.7 558.366 1876.06 566.679C1882.94 561.111 1886.39 558.313 1893.27 552.692C1900.17 557.085 1903.59 559.255 1910.47 563.568C1907.85 555.751 1906.55 551.83 1903.91 543.987C1910.78 538.34 1914.23 535.49 1921.11 529.791C1912.61 530.654 1908.35 531.072 1899.85 531.856C1897.21 524.013 1895.91 520.092 1893.27 512.249C1890.65 520.562 1889.32 524.719 1886.7 533.059C1878.21 533.791 1873.95 534.131 1865.42 534.784Z" fill="white"/>
<path d="M1446.66 354.63C1453.54 361.323 1456.96 364.617 1463.86 371.153C1461.22 378.656 1459.91 382.421 1457.27 389.898C1464.18 386.473 1467.6 384.747 1474.5 381.218C1481.38 387.702 1484.8 390.917 1491.7 397.27C1489.06 388.669 1487.76 384.355 1485.12 375.728C1492.02 372.12 1495.44 370.29 1502.32 366.578C1493.82 365.009 1489.56 364.146 1481.06 362.395C1478.42 353.741 1477.12 349.428 1474.5 340.774C1471.86 348.304 1470.55 352.068 1467.91 359.571C1459.42 357.689 1455.16 356.696 1446.66 354.63Z" fill="white"/>
<path d="M1566.4 376.669C1573.3 382.551 1576.72 385.479 1583.62 391.257C1580.98 399.048 1579.68 402.943 1577.04 410.734C1583.91 406.551 1587.36 404.433 1594.24 400.146C1601.14 405.871 1604.56 408.695 1611.44 414.316C1608.83 406.002 1607.52 401.819 1604.88 393.479C1611.75 389.139 1615.21 386.943 1622.08 382.499C1613.58 381.819 1609.32 381.427 1600.83 380.591C1598.19 372.251 1596.88 368.068 1594.24 359.702C1591.62 367.519 1590.29 371.414 1587.68 379.205C1579.15 378.29 1574.92 377.767 1566.4 376.669Z" fill="white"/>
<path d="M1686.16 386.133C1693.03 391.362 1696.49 393.95 1703.36 399.1C1700.75 407.126 1699.41 411.152 1696.8 419.178C1703.68 414.342 1707.13 411.91 1714 406.995C1720.88 412.093 1724.33 414.603 1731.2 419.622C1728.59 411.518 1727.26 407.466 1724.64 399.361C1731.52 394.42 1734.97 391.911 1741.84 386.865C1733.32 386.917 1729.09 386.917 1720.56 386.839C1717.95 378.734 1716.64 374.682 1714 366.551C1711.36 374.604 1710.05 378.63 1707.44 386.682C1698.92 386.525 1694.66 386.42 1686.16 386.133Z" fill="white"/>
<path d="M1805.92 385.218C1812.8 389.897 1816.25 392.224 1823.12 396.851C1820.48 405.087 1819.18 409.217 1816.54 417.426C1823.44 412.067 1826.86 409.4 1833.76 403.963C1840.64 408.564 1844.09 410.838 1850.97 415.361C1848.33 407.44 1847.02 403.492 1844.38 395.57C1851.28 390.106 1854.71 387.361 1861.61 381.845C1853.08 382.499 1848.82 382.786 1840.33 383.335C1837.69 375.414 1836.38 371.44 1833.76 363.519C1831.12 371.754 1829.82 375.884 1827.18 384.12C1818.68 384.616 1814.42 384.826 1805.92 385.218Z" fill="white"/>
<path d="M1446.29 456.615C1453.17 463.282 1456.62 466.576 1463.49 473.138C1460.88 480.641 1459.55 484.38 1456.93 491.857C1463.81 488.458 1467.26 486.733 1474.13 483.203C1481.01 489.687 1484.46 492.903 1491.34 499.255C1488.72 490.654 1487.39 486.34 1484.77 477.713C1491.65 474.105 1495.1 472.275 1501.98 468.563C1493.45 466.968 1489.22 466.132 1480.7 464.354C1478.08 455.727 1476.78 451.413 1474.13 442.759C1471.49 450.263 1470.19 454.027 1467.57 461.531C1459.05 459.648 1454.79 458.681 1446.29 456.615Z" fill="white"/>
<path d="M1566.05 478.681C1572.93 484.563 1576.38 487.491 1583.26 493.269C1580.62 501.059 1579.31 504.955 1576.7 512.745C1583.57 508.562 1587 506.445 1593.9 502.157C1600.77 507.883 1604.22 510.732 1611.1 516.353C1608.46 508.013 1607.15 503.857 1604.51 495.517C1611.41 491.151 1614.84 488.981 1621.74 484.537C1613.22 483.831 1608.96 483.439 1600.46 482.602C1597.82 474.262 1596.51 470.079 1593.9 461.713C1591.26 469.53 1589.95 473.426 1587.31 481.217C1578.81 480.275 1574.55 479.779 1566.05 478.681Z" fill="white"/>
<path d="M1685.82 488.17C1692.69 493.399 1696.12 495.987 1703.02 501.138C1700.38 509.19 1699.07 513.19 1696.43 521.216C1703.33 516.379 1706.76 513.948 1713.64 509.059C1720.54 514.131 1723.96 516.667 1730.86 521.686C1728.22 513.582 1726.92 509.53 1724.28 501.425C1731.15 496.458 1734.6 493.974 1741.48 488.929C1732.98 488.981 1728.72 488.955 1720.22 488.902C1717.58 480.772 1716.28 476.72 1713.64 468.589C1711.02 476.641 1709.71 480.667 1707.07 488.72C1698.58 488.563 1694.31 488.458 1685.82 488.17Z" fill="white"/>
<path d="M1805.55 487.282C1812.43 491.962 1815.88 494.289 1822.76 498.916C1820.14 507.151 1818.81 511.282 1816.2 519.491C1823.07 514.157 1826.52 511.465 1833.4 506.053C1840.27 510.628 1843.72 512.903 1850.6 517.425C1847.99 509.53 1846.65 505.556 1844.04 497.661C1850.91 492.197 1854.36 489.452 1861.24 483.936C1852.74 484.563 1848.48 484.877 1839.96 485.4C1837.35 477.478 1836.04 473.531 1833.4 465.583C1830.76 473.844 1829.45 477.949 1826.84 486.21C1818.31 486.681 1814.08 486.89 1805.55 487.282Z" fill="white"/>
</g>
<defs>
<clipPath id="clip0_4_3496">
<rect width="1920" height="1080" fill="white"/>
</clipPath>
</defs>
</svg>
