<svg width="1644" height="770" viewBox="0 0 1644 770" fill="none" xmlns="http://www.w3.org/2000/svg">
<path d="M60.966 123L54.31 63.608H52.902L45.734 123H17.318L8.74201 26.104H29.094L33.446 92.024H34.854L43.686 26.104H63.91L72.87 92.024H74.278L78.502 26.104H97.702L89.382 123H60.966ZM135.413 123L133.749 100.6H124.021L122.485 123H102.261L112.629 26.104H146.421L156.149 123H135.413ZM129.525 46.328H128.117L124.917 81.016H132.853L129.525 46.328ZM210.333 123L187.421 71.032H186.653V123H168.349V26.104H188.061L201.629 59.768H202.397V26.104H220.829V123H210.333ZM248.171 123V46.584H232.939V26.104H283.499V46.584H268.267V123H248.171ZM340.221 123V46.584H324.989V26.104H375.549V46.584H360.317V123H340.221ZM432.782 116.728C431.929 118.264 430.905 119.544 429.71 120.568C428.601 121.507 427.193 122.317 425.486 123C423.779 123.597 421.774 124.024 419.47 124.28C417.166 124.536 414.478 124.664 411.406 124.664C405.177 124.664 400.441 124.109 397.198 123C394.041 121.805 391.609 119.715 389.902 116.728C389.049 115.277 388.323 113.699 387.726 111.992C387.129 110.2 386.617 107.811 386.19 104.824C385.849 101.837 385.593 97.9547 385.422 93.176C385.251 88.312 385.166 82.0827 385.166 74.488C385.166 66.8933 385.251 60.7067 385.422 55.928C385.593 51.1493 385.849 47.2667 386.19 44.28C386.617 41.2933 387.129 38.9467 387.726 37.24C388.323 35.5333 389.049 33.912 389.902 32.376C390.755 30.9253 391.737 29.688 392.846 28.664C394.041 27.64 395.491 26.8293 397.198 26.232C398.905 25.5493 400.91 25.08 403.214 24.824C405.603 24.568 408.334 24.44 411.406 24.44C417.55 24.44 422.201 25.0373 425.358 26.232C428.601 27.4267 431.075 29.4747 432.782 32.376C433.635 33.912 434.361 35.5333 434.958 37.24C435.555 38.9467 436.025 41.2933 436.366 44.28C436.793 47.2667 437.091 51.1493 437.262 55.928C437.433 60.7067 437.518 66.8933 437.518 74.488C437.518 82.0827 437.433 88.312 437.262 93.176C437.091 97.9547 436.793 101.837 436.366 104.824C436.025 107.811 435.555 110.2 434.958 111.992C434.361 113.699 433.635 115.277 432.782 116.728ZM416.398 100.728C416.569 100.131 416.739 99.3627 416.91 98.424C417.081 97.4853 417.209 96.0773 417.294 94.2C417.379 92.3227 417.422 89.8053 417.422 86.648C417.507 83.4053 417.55 79.1813 417.55 73.976C417.55 68.6 417.507 64.2907 417.422 61.048C417.422 57.8053 417.379 55.2453 417.294 53.368C417.209 51.4053 417.081 49.9547 416.91 49.016C416.739 48.0773 416.569 47.3093 416.398 46.712C416.057 45.8587 415.545 45.2613 414.862 44.92C414.179 44.4933 413.027 44.28 411.406 44.28C409.785 44.28 408.59 44.4933 407.822 44.92C407.139 45.2613 406.67 45.8587 406.414 46.712C406.158 47.3093 405.945 48.0773 405.774 49.016C405.689 49.9547 405.561 51.4053 405.39 53.368C405.305 55.2453 405.219 57.8053 405.134 61.048C405.134 64.2907 405.134 68.6 405.134 73.976C405.134 79.1813 405.134 83.4053 405.134 86.648C405.219 89.8053 405.305 92.3227 405.39 94.2C405.561 96.0773 405.689 97.4853 405.774 98.424C405.945 99.3627 406.158 100.131 406.414 100.728C406.67 101.581 407.139 102.179 407.822 102.52C408.59 102.861 409.785 103.032 411.406 103.032C413.027 103.032 414.179 102.861 414.862 102.52C415.545 102.179 416.057 101.581 416.398 100.728ZM482.877 123V26.104H511.677C516.029 26.104 519.613 26.616 522.429 27.64C525.33 28.5787 527.634 30.1147 529.341 32.248C531.133 34.296 532.37 36.984 533.053 40.312C533.821 43.5547 534.205 47.5227 534.205 52.216C534.205 55.7147 534.077 58.5733 533.821 60.792C533.65 63.0107 533.266 64.8453 532.669 66.296C532.157 67.7467 531.474 68.9413 530.621 69.88C529.768 70.8187 528.701 71.7147 527.421 72.568V73.464C528.701 74.232 529.81 74.9573 530.749 75.64C531.773 76.3227 532.626 77.432 533.309 78.968C534.077 80.4187 534.632 82.552 534.973 85.368C535.314 88.0987 535.485 91.9387 535.485 96.888C535.485 101.581 535.144 105.592 534.461 108.92C533.778 112.163 532.584 114.851 530.877 116.984C529.256 119.032 527.037 120.568 524.221 121.592C521.405 122.531 517.821 123 513.469 123H482.877ZM509.373 103.416C511.336 103.416 512.744 102.819 513.597 101.624C514.536 100.429 515.005 97.9547 515.005 94.2C515.005 89.7627 514.621 86.6053 513.853 84.728C513.085 82.8507 511.762 81.912 509.885 81.912H502.973V103.416H509.373ZM508.861 65.912C510.824 65.912 512.146 65.144 512.829 63.608C513.597 62.072 513.981 59.128 513.981 54.776C513.981 50.936 513.512 48.4187 512.573 47.224C511.72 45.944 510.312 45.304 508.349 45.304H502.973V65.912H508.861ZM548.152 123V26.104H591.032V46.584H568.248V63.608H590.648V83.192H568.248V101.496H590.904V123H548.152ZM667.663 123L665.999 100.6H656.271L654.735 123H634.511L644.879 26.104H678.671L688.399 123H667.663ZM661.775 46.328H660.367L657.167 81.016H665.103L661.775 46.328ZM727.625 56.184C727.71 55.5013 727.753 54.9467 727.753 54.52C727.753 54.008 727.753 53.1547 727.753 51.96C727.753 48.9733 727.369 46.9253 726.601 45.816C725.918 44.6213 724.34 44.024 721.865 44.024C719.39 44.024 717.812 44.6213 717.129 45.816C716.446 46.9253 716.105 48.9733 716.105 51.96C716.105 54.776 716.446 56.7813 717.129 57.976C717.897 59.0853 719.092 60.1093 720.713 61.048C722.59 62.1573 724.34 63.096 725.961 63.864C727.668 64.632 729.204 65.3573 730.569 66.04C732.02 66.6373 733.385 67.2347 734.665 67.832C735.945 68.4293 737.225 69.1547 738.505 70.008C739.87 71.032 741.065 72.1413 742.089 73.336C743.198 74.4453 744.052 75.9387 744.649 77.816C745.332 79.608 745.844 81.8693 746.185 84.6C746.526 87.2453 746.697 90.5733 746.697 94.584C746.697 100.387 746.27 105.208 745.417 109.048C744.649 112.888 743.284 115.96 741.321 118.264C739.444 120.568 736.841 122.189 733.513 123.128C730.27 124.152 726.217 124.664 721.353 124.664C713.332 124.664 707.444 123.171 703.689 120.184C699.934 117.112 698.057 111.779 698.057 104.184C698.057 101.709 698.1 99.2347 698.185 96.76C698.356 94.2 698.654 92.152 699.081 90.616H715.849C715.678 91.128 715.593 91.6827 715.593 92.28C715.593 92.8773 715.593 93.5173 715.593 94.2C715.593 97.9547 715.977 100.557 716.745 102.008C717.513 103.373 719.177 104.056 721.737 104.056C724.297 104.056 725.961 103.459 726.729 102.264C727.582 100.984 728.009 98.296 728.009 94.2C728.009 91.7253 727.625 89.848 726.857 88.568C726.089 87.288 724.852 86.0507 723.145 84.856C721.609 83.832 719.945 82.8933 718.153 82.04C716.446 81.1867 714.697 80.376 712.905 79.608C711.198 78.84 709.534 78.0293 707.913 77.176C706.292 76.2373 704.841 75.1707 703.561 73.976C700.916 71.672 699.294 68.5147 698.697 64.504C698.185 60.4933 697.929 55.288 697.929 48.888C697.929 44.3653 698.27 40.568 698.953 37.496C699.721 34.3387 701.001 31.8213 702.793 29.944C704.585 27.9813 707.017 26.5733 710.089 25.72C713.161 24.8667 717.086 24.44 721.865 24.44C726.217 24.44 729.844 24.7813 732.745 25.464C735.732 26.1467 738.164 27.3413 740.041 29.048C741.918 30.6693 743.241 32.8453 744.009 35.576C744.862 38.3067 745.289 41.72 745.289 45.816C745.289 48.4613 745.204 50.552 745.033 52.088C744.948 53.624 744.692 54.9893 744.265 56.184H727.625ZM841.822 85.88C842.078 88.952 842.206 91.8533 842.206 94.584C842.206 99.704 841.907 104.184 841.31 108.024C840.798 111.779 839.646 114.893 837.854 117.368C836.062 119.843 833.502 121.677 830.174 122.872C826.931 124.067 822.622 124.664 817.246 124.664C810.846 124.664 805.939 124.109 802.526 123C799.198 121.805 796.723 119.715 795.102 116.728C794.249 115.363 793.523 113.741 792.926 111.864C792.329 109.987 791.817 107.469 791.39 104.312C791.049 101.155 790.793 97.144 790.622 92.28C790.451 87.416 790.366 81.2293 790.366 73.72C790.366 66.2107 790.451 60.1093 790.622 55.416C790.793 50.7227 791.049 46.8827 791.39 43.896C791.817 40.9093 792.329 38.5627 792.926 36.856C793.523 35.1493 794.249 33.5707 795.102 32.12C796.809 29.2187 799.283 27.2133 802.526 26.104C805.769 24.9947 810.462 24.44 816.606 24.44C822.067 24.44 826.462 24.952 829.79 25.976C833.118 27 835.678 28.664 837.47 30.968C839.262 33.272 840.457 36.2587 841.054 39.928C841.651 43.512 841.95 47.864 841.95 52.984C841.95 54.1787 841.907 55.5013 841.822 56.952C841.822 58.4027 841.779 59.9387 841.694 61.56H822.878C822.878 59 822.835 56.8667 822.75 55.16C822.75 53.4533 822.707 52.0453 822.622 50.936C822.537 49.8267 822.409 48.9733 822.238 48.376C822.153 47.6933 822.067 47.1387 821.982 46.712C821.641 45.0907 819.849 44.28 816.606 44.28C814.985 44.28 813.79 44.4933 813.022 44.92C812.339 45.2613 811.87 45.8587 811.614 46.712C811.358 47.3947 811.145 48.2053 810.974 49.144C810.889 49.9973 810.761 51.3627 810.59 53.24C810.505 55.032 810.419 57.5493 810.334 60.792C810.334 64.0347 810.334 68.2587 810.334 73.464C810.334 78.84 810.334 83.1493 810.334 86.392C810.419 89.6347 810.505 92.1947 810.59 94.072C810.761 95.9493 810.889 97.3573 810.974 98.296C811.145 99.2347 811.358 100.045 811.614 100.728C811.87 101.581 812.382 102.179 813.15 102.52C813.918 102.861 815.283 103.032 817.246 103.032C819.806 103.032 821.342 102.307 821.854 100.856C822.195 100.003 822.451 99.1067 822.622 98.168C822.793 97.2293 822.921 96.2053 823.006 95.096C823.091 93.9013 823.134 92.5787 823.134 91.128C823.219 89.592 823.262 87.8427 823.262 85.88H841.822ZM902.257 116.728C901.404 118.264 900.38 119.544 899.185 120.568C898.076 121.507 896.668 122.317 894.961 123C893.254 123.597 891.249 124.024 888.945 124.28C886.641 124.536 883.953 124.664 880.881 124.664C874.652 124.664 869.916 124.109 866.673 123C863.516 121.805 861.084 119.715 859.377 116.728C858.524 115.277 857.798 113.699 857.201 111.992C856.604 110.2 856.092 107.811 855.665 104.824C855.324 101.837 855.068 97.9547 854.897 93.176C854.726 88.312 854.641 82.0827 854.641 74.488C854.641 66.8933 854.726 60.7067 854.897 55.928C855.068 51.1493 855.324 47.2667 855.665 44.28C856.092 41.2933 856.604 38.9467 857.201 37.24C857.798 35.5333 858.524 33.912 859.377 32.376C860.23 30.9253 861.212 29.688 862.321 28.664C863.516 27.64 864.966 26.8293 866.673 26.232C868.38 25.5493 870.385 25.08 872.689 24.824C875.078 24.568 877.809 24.44 880.881 24.44C887.025 24.44 891.676 25.0373 894.833 26.232C898.076 27.4267 900.55 29.4747 902.257 32.376C903.11 33.912 903.836 35.5333 904.433 37.24C905.03 38.9467 905.5 41.2933 905.841 44.28C906.268 47.2667 906.566 51.1493 906.737 55.928C906.908 60.7067 906.993 66.8933 906.993 74.488C906.993 82.0827 906.908 88.312 906.737 93.176C906.566 97.9547 906.268 101.837 905.841 104.824C905.5 107.811 905.03 110.2 904.433 111.992C903.836 113.699 903.11 115.277 902.257 116.728ZM885.873 100.728C886.044 100.131 886.214 99.3627 886.385 98.424C886.556 97.4853 886.684 96.0773 886.769 94.2C886.854 92.3227 886.897 89.8053 886.897 86.648C886.982 83.4053 887.025 79.1813 887.025 73.976C887.025 68.6 886.982 64.2907 886.897 61.048C886.897 57.8053 886.854 55.2453 886.769 53.368C886.684 51.4053 886.556 49.9547 886.385 49.016C886.214 48.0773 886.044 47.3093 885.873 46.712C885.532 45.8587 885.02 45.2613 884.337 44.92C883.654 44.4933 882.502 44.28 880.881 44.28C879.26 44.28 878.065 44.4933 877.297 44.92C876.614 45.2613 876.145 45.8587 875.889 46.712C875.633 47.3093 875.42 48.0773 875.249 49.016C875.164 49.9547 875.036 51.4053 874.865 53.368C874.78 55.2453 874.694 57.8053 874.609 61.048C874.609 64.2907 874.609 68.6 874.609 73.976C874.609 79.1813 874.609 83.4053 874.609 86.648C874.694 89.8053 874.78 92.3227 874.865 94.2C875.036 96.0773 875.164 97.4853 875.249 98.424C875.42 99.3627 875.633 100.131 875.889 100.728C876.145 101.581 876.614 102.179 877.297 102.52C878.065 102.861 879.26 103.032 880.881 103.032C882.502 103.032 883.654 102.861 884.337 102.52C885.02 102.179 885.532 101.581 885.873 100.728ZM966.657 116.728C965.804 118.264 964.78 119.544 963.585 120.568C962.476 121.507 961.068 122.317 959.361 123C957.654 123.597 955.649 124.024 953.345 124.28C951.041 124.536 948.353 124.664 945.281 124.664C939.052 124.664 934.316 124.109 931.073 123C927.916 121.805 925.484 119.715 923.777 116.728C922.924 115.277 922.198 113.699 921.601 111.992C921.004 110.2 920.492 107.811 920.065 104.824C919.724 101.837 919.468 97.9547 919.297 93.176C919.126 88.312 919.041 82.0827 919.041 74.488C919.041 66.8933 919.126 60.7067 919.297 55.928C919.468 51.1493 919.724 47.2667 920.065 44.28C920.492 41.2933 921.004 38.9467 921.601 37.24C922.198 35.5333 922.924 33.912 923.777 32.376C924.63 30.9253 925.612 29.688 926.721 28.664C927.916 27.64 929.366 26.8293 931.073 26.232C932.78 25.5493 934.785 25.08 937.089 24.824C939.478 24.568 942.209 24.44 945.281 24.44C951.425 24.44 956.076 25.0373 959.233 26.232C962.476 27.4267 964.95 29.4747 966.657 32.376C967.51 33.912 968.236 35.5333 968.833 37.24C969.43 38.9467 969.9 41.2933 970.241 44.28C970.668 47.2667 970.966 51.1493 971.137 55.928C971.308 60.7067 971.393 66.8933 971.393 74.488C971.393 82.0827 971.308 88.312 971.137 93.176C970.966 97.9547 970.668 101.837 970.241 104.824C969.9 107.811 969.43 110.2 968.833 111.992C968.236 113.699 967.51 115.277 966.657 116.728ZM950.273 100.728C950.444 100.131 950.614 99.3627 950.785 98.424C950.956 97.4853 951.084 96.0773 951.169 94.2C951.254 92.3227 951.297 89.8053 951.297 86.648C951.382 83.4053 951.425 79.1813 951.425 73.976C951.425 68.6 951.382 64.2907 951.297 61.048C951.297 57.8053 951.254 55.2453 951.169 53.368C951.084 51.4053 950.956 49.9547 950.785 49.016C950.614 48.0773 950.444 47.3093 950.273 46.712C949.932 45.8587 949.42 45.2613 948.737 44.92C948.054 44.4933 946.902 44.28 945.281 44.28C943.66 44.28 942.465 44.4933 941.697 44.92C941.014 45.2613 940.545 45.8587 940.289 46.712C940.033 47.3093 939.82 48.0773 939.649 49.016C939.564 49.9547 939.436 51.4053 939.265 53.368C939.18 55.2453 939.094 57.8053 939.009 61.048C939.009 64.2907 939.009 68.6 939.009 73.976C939.009 79.1813 939.009 83.4053 939.009 86.648C939.094 89.8053 939.18 92.3227 939.265 94.2C939.436 96.0773 939.564 97.4853 939.649 98.424C939.82 99.3627 940.033 100.131 940.289 100.728C940.545 101.581 941.014 102.179 941.697 102.52C942.465 102.861 943.66 103.032 945.281 103.032C946.902 103.032 948.054 102.861 948.737 102.52C949.42 102.179 949.932 101.581 950.273 100.728ZM984.977 123V26.104H1005.07V101.496H1025.81V123H984.977ZM1100.36 123L1098.7 100.6H1088.97L1087.44 123H1067.21L1077.58 26.104H1111.37L1121.1 123H1100.36ZM1094.48 46.328H1093.07L1089.87 81.016H1097.8L1094.48 46.328ZM1160.32 56.184C1160.41 55.5013 1160.45 54.9467 1160.45 54.52C1160.45 54.008 1160.45 53.1547 1160.45 51.96C1160.45 48.9733 1160.07 46.9253 1159.3 45.816C1158.62 44.6213 1157.04 44.024 1154.56 44.024C1152.09 44.024 1150.51 44.6213 1149.83 45.816C1149.15 46.9253 1148.8 48.9733 1148.8 51.96C1148.8 54.776 1149.15 56.7813 1149.83 57.976C1150.6 59.0853 1151.79 60.1093 1153.41 61.048C1155.29 62.1573 1157.04 63.096 1158.66 63.864C1160.37 64.632 1161.9 65.3573 1163.27 66.04C1164.72 66.6373 1166.08 67.2347 1167.36 67.832C1168.64 68.4293 1169.92 69.1547 1171.2 70.008C1172.57 71.032 1173.76 72.1413 1174.79 73.336C1175.9 74.4453 1176.75 75.9387 1177.35 77.816C1178.03 79.608 1178.54 81.8693 1178.88 84.6C1179.23 87.2453 1179.4 90.5733 1179.4 94.584C1179.4 100.387 1178.97 105.208 1178.12 109.048C1177.35 112.888 1175.98 115.96 1174.02 118.264C1172.14 120.568 1169.54 122.189 1166.21 123.128C1162.97 124.152 1158.92 124.664 1154.05 124.664C1146.03 124.664 1140.14 123.171 1136.39 120.184C1132.63 117.112 1130.76 111.779 1130.76 104.184C1130.76 101.709 1130.8 99.2347 1130.88 96.76C1131.06 94.2 1131.35 92.152 1131.78 90.616H1148.55C1148.38 91.128 1148.29 91.6827 1148.29 92.28C1148.29 92.8773 1148.29 93.5173 1148.29 94.2C1148.29 97.9547 1148.68 100.557 1149.44 102.008C1150.21 103.373 1151.88 104.056 1154.44 104.056C1157 104.056 1158.66 103.459 1159.43 102.264C1160.28 100.984 1160.71 98.296 1160.71 94.2C1160.71 91.7253 1160.32 89.848 1159.56 88.568C1158.79 87.288 1157.55 86.0507 1155.84 84.856C1154.31 83.832 1152.64 82.8933 1150.85 82.04C1149.15 81.1867 1147.4 80.376 1145.6 79.608C1143.9 78.84 1142.23 78.0293 1140.61 77.176C1138.99 76.2373 1137.54 75.1707 1136.26 73.976C1133.62 71.672 1131.99 68.5147 1131.4 64.504C1130.88 60.4933 1130.63 55.288 1130.63 48.888C1130.63 44.3653 1130.97 40.568 1131.65 37.496C1132.42 34.3387 1133.7 31.8213 1135.49 29.944C1137.28 27.9813 1139.72 26.5733 1142.79 25.72C1145.86 24.8667 1149.79 24.44 1154.56 24.44C1158.92 24.44 1162.54 24.7813 1165.44 25.464C1168.43 26.1467 1170.86 27.3413 1172.74 29.048C1174.62 30.6693 1175.94 32.8453 1176.71 35.576C1177.56 38.3067 1177.99 41.72 1177.99 45.816C1177.99 48.4613 1177.9 50.552 1177.73 52.088C1177.65 53.624 1177.39 54.9893 1176.96 56.184H1160.32ZM1254.94 123L1253.27 100.6H1243.55L1242.01 123H1221.79L1232.15 26.104H1265.95L1275.67 123H1254.94ZM1249.05 46.328H1247.64L1244.44 81.016H1252.38L1249.05 46.328ZM1333.6 123V87.672L1315.94 26.744V26.104H1336.67C1338.04 32.1627 1339.11 37.0267 1339.87 40.696C1340.73 44.28 1341.37 47.1813 1341.79 49.4C1342.31 51.5333 1342.69 53.1547 1342.95 54.264C1343.2 55.3733 1343.41 56.44 1343.59 57.464H1344.87C1345.04 56.44 1345.25 55.3733 1345.51 54.264C1345.76 53.1547 1346.1 51.5333 1346.53 49.4C1347.04 47.1813 1347.72 44.28 1348.58 40.696C1349.43 37.0267 1350.58 32.1627 1352.03 26.104H1372.13V26.744L1355.23 87.416V123H1333.6ZM1426.51 116.728C1425.65 118.264 1424.63 119.544 1423.43 120.568C1422.33 121.507 1420.92 122.317 1419.21 123C1417.5 123.597 1415.5 124.024 1413.19 124.28C1410.89 124.536 1408.2 124.664 1405.13 124.664C1398.9 124.664 1394.17 124.109 1390.92 123C1387.77 121.805 1385.33 119.715 1383.63 116.728C1382.77 115.277 1382.05 113.699 1381.45 111.992C1380.85 110.2 1380.34 107.811 1379.91 104.824C1379.57 101.837 1379.32 97.9547 1379.15 93.176C1378.98 88.312 1378.89 82.0827 1378.89 74.488C1378.89 66.8933 1378.98 60.7067 1379.15 55.928C1379.32 51.1493 1379.57 47.2667 1379.91 44.28C1380.34 41.2933 1380.85 38.9467 1381.45 37.24C1382.05 35.5333 1382.77 33.912 1383.63 32.376C1384.48 30.9253 1385.46 29.688 1386.57 28.664C1387.77 27.64 1389.22 26.8293 1390.92 26.232C1392.63 25.5493 1394.63 25.08 1396.94 24.824C1399.33 24.568 1402.06 24.44 1405.13 24.44C1411.27 24.44 1415.93 25.0373 1419.08 26.232C1422.33 27.4267 1424.8 29.4747 1426.51 32.376C1427.36 33.912 1428.09 35.5333 1428.68 37.24C1429.28 38.9467 1429.75 41.2933 1430.09 44.28C1430.52 47.2667 1430.82 51.1493 1430.99 55.928C1431.16 60.7067 1431.24 66.8933 1431.24 74.488C1431.24 82.0827 1431.16 88.312 1430.99 93.176C1430.82 97.9547 1430.52 101.837 1430.09 104.824C1429.75 107.811 1429.28 110.2 1428.68 111.992C1428.09 113.699 1427.36 115.277 1426.51 116.728ZM1410.12 100.728C1410.29 100.131 1410.46 99.3627 1410.63 98.424C1410.81 97.4853 1410.93 96.0773 1411.02 94.2C1411.1 92.3227 1411.15 89.8053 1411.15 86.648C1411.23 83.4053 1411.27 79.1813 1411.27 73.976C1411.27 68.6 1411.23 64.2907 1411.15 61.048C1411.15 57.8053 1411.1 55.2453 1411.02 53.368C1410.93 51.4053 1410.81 49.9547 1410.63 49.016C1410.46 48.0773 1410.29 47.3093 1410.12 46.712C1409.78 45.8587 1409.27 45.2613 1408.59 44.92C1407.9 44.4933 1406.75 44.28 1405.13 44.28C1403.51 44.28 1402.31 44.4933 1401.55 44.92C1400.86 45.2613 1400.39 45.8587 1400.14 46.712C1399.88 47.3093 1399.67 48.0773 1399.5 49.016C1399.41 49.9547 1399.29 51.4053 1399.11 53.368C1399.03 55.2453 1398.94 57.8053 1398.86 61.048C1398.86 64.2907 1398.86 68.6 1398.86 73.976C1398.86 79.1813 1398.86 83.4053 1398.86 86.648C1398.94 89.8053 1399.03 92.3227 1399.11 94.2C1399.29 96.0773 1399.41 97.4853 1399.5 98.424C1399.67 99.3627 1399.88 100.131 1400.14 100.728C1400.39 101.581 1400.86 102.179 1401.55 102.52C1402.31 102.861 1403.51 103.032 1405.13 103.032C1406.75 103.032 1407.9 102.861 1408.59 102.52C1409.27 102.179 1409.78 101.581 1410.12 100.728ZM1476.19 26.104H1496.16V93.176C1496.07 97.1867 1495.9 100.515 1495.64 103.16C1495.39 105.805 1495.05 108.024 1494.62 109.816C1494.28 111.608 1493.85 113.101 1493.34 114.296C1492.83 115.405 1492.23 116.515 1491.55 117.624C1490.69 118.989 1489.67 120.141 1488.48 121.08C1487.37 121.933 1485.96 122.616 1484.25 123.128C1482.54 123.725 1480.54 124.109 1478.24 124.28C1475.93 124.536 1473.24 124.664 1470.17 124.664C1463.94 124.664 1459.21 124.152 1455.96 123.128C1452.72 122.189 1450.29 120.355 1448.67 117.624C1447.98 116.515 1447.34 115.405 1446.75 114.296C1446.15 113.101 1445.64 111.608 1445.21 109.816C1444.78 108.024 1444.44 105.805 1444.19 103.16C1444.02 100.515 1443.93 97.1867 1443.93 93.176V26.104H1464.54V93.176C1464.54 95.48 1464.58 97.272 1464.67 98.552C1464.84 99.832 1465.14 100.813 1465.56 101.496C1465.99 102.179 1466.59 102.605 1467.36 102.776C1468.12 102.947 1469.15 103.032 1470.43 103.032C1471.71 103.032 1472.69 102.947 1473.37 102.776C1474.14 102.605 1474.74 102.179 1475.16 101.496C1475.59 100.813 1475.85 99.832 1475.93 98.552C1476.1 97.272 1476.19 95.48 1476.19 93.176V26.104ZM1552.21 123L1529.3 71.032H1528.53V123H1510.22V26.104H1529.94L1543.5 59.768H1544.27V26.104H1562.7V123H1552.21ZM1609.76 85.496H1600.41V66.04H1627.81C1627.89 67.7467 1627.93 70.2213 1627.93 73.464C1628.02 76.7067 1628.06 80.5893 1628.06 85.112C1628.06 90.4027 1627.98 94.7973 1627.81 98.296C1627.64 101.795 1627.34 104.696 1626.91 107C1626.57 109.304 1626.1 111.181 1625.5 112.632C1624.99 114.083 1624.35 115.448 1623.58 116.728C1622.73 118.264 1621.7 119.544 1620.51 120.568C1619.4 121.507 1617.99 122.317 1616.29 123C1614.58 123.597 1612.57 124.024 1610.27 124.28C1607.97 124.536 1605.28 124.664 1602.21 124.664C1595.98 124.664 1591.24 124.109 1588 123C1584.84 121.805 1582.41 119.715 1580.7 116.728C1579.85 115.277 1579.12 113.699 1578.53 111.992C1577.93 110.2 1577.42 107.768 1576.99 104.696C1576.65 101.624 1576.39 97.656 1576.22 92.792C1576.05 87.928 1575.97 81.5707 1575.97 73.72C1575.97 66.2107 1576.05 60.1093 1576.22 55.416C1576.39 50.7227 1576.65 46.8827 1576.99 43.896C1577.42 40.9093 1577.93 38.5627 1578.53 36.856C1579.12 35.1493 1579.85 33.5707 1580.7 32.12C1582.41 29.2187 1584.88 27.2133 1588.13 26.104C1591.37 24.9947 1596.06 24.44 1602.21 24.44C1609.29 24.44 1614.62 25.3787 1618.21 27.256C1621.79 29.048 1624.31 32.12 1625.76 36.472C1626.87 40.056 1627.42 44.792 1627.42 50.68C1627.42 51.8747 1627.42 52.8133 1627.42 53.496C1627.42 54.0933 1627.38 54.8187 1627.29 55.672H1608.61C1608.69 55.416 1608.73 55.16 1608.73 54.904C1608.73 54.5627 1608.73 54.264 1608.73 54.008C1608.73 51.8747 1608.65 50.296 1608.48 49.272C1608.31 48.248 1608.14 47.3947 1607.97 46.712C1607.62 45.0907 1605.66 44.28 1602.08 44.28C1600.37 44.28 1599.09 44.4933 1598.24 44.92C1597.47 45.2613 1596.92 45.8587 1596.57 46.712C1596.4 47.3947 1596.23 48.2053 1596.06 49.144C1595.89 49.9973 1595.76 51.3627 1595.68 53.24C1595.59 55.032 1595.51 57.5493 1595.42 60.792C1595.42 64.0347 1595.42 68.2587 1595.42 73.464C1595.42 79.0107 1595.42 83.448 1595.42 86.776C1595.51 90.0187 1595.59 92.5787 1595.68 94.456C1595.76 96.248 1595.85 97.5707 1595.93 98.424C1596.1 99.192 1596.28 99.8747 1596.45 100.472C1597.13 102.349 1599.18 103.288 1602.59 103.288C1604.3 103.288 1605.53 103.117 1606.3 102.776C1607.16 102.349 1607.84 101.709 1608.35 100.856C1608.61 100.429 1608.82 100.003 1608.99 99.576C1609.25 99.064 1609.42 98.424 1609.5 97.656C1609.59 96.888 1609.63 95.9493 1609.63 94.84C1609.72 93.6453 1609.76 92.0667 1609.76 90.104V85.496ZM86.746 277V200.584H71.514V180.104H122.074V200.584H106.842V277H86.746ZM166.221 277C165.965 276.232 165.709 275.421 165.453 274.568C165.282 273.629 165.069 272.264 164.813 270.472C164.557 268.595 164.216 266.035 163.789 262.792C163.362 259.549 162.85 255.112 162.253 249.48C161.997 247.261 161.741 245.469 161.485 244.104C161.229 242.739 160.93 241.715 160.589 241.032C160.248 240.264 159.821 239.795 159.309 239.624C158.797 239.368 158.242 239.24 157.645 239.24H154.573V277H134.477V180.104H163.789C168.141 180.104 171.725 180.616 174.541 181.64C177.357 182.579 179.576 184.115 181.197 186.248C182.904 188.296 184.056 190.984 184.653 194.312C185.336 197.555 185.677 201.523 185.677 206.216C185.677 211.251 185.506 215.219 185.165 218.12C184.824 220.936 184.269 223.155 183.501 224.776C182.818 226.397 181.965 227.635 180.941 228.488C179.917 229.256 178.722 230.024 177.357 230.792V231.56C177.869 231.987 178.381 232.456 178.893 232.968C179.49 233.48 180.002 234.333 180.429 235.528C181.112 237.064 181.794 239.411 182.477 242.568C183.245 245.64 183.97 249.992 184.653 255.624C185.165 259.549 185.549 262.707 185.805 265.096C186.061 267.485 186.274 269.405 186.445 270.856C186.701 272.307 186.872 273.416 186.957 274.184C187.128 274.952 187.341 275.677 187.597 276.36V277H166.221ZM160.205 221.192C162.082 221.192 163.405 220.424 164.173 218.888C164.941 217.267 165.325 214.195 165.325 209.672C165.325 205.832 164.856 203.272 163.917 201.992C163.064 200.712 161.656 200.072 159.693 200.072H154.573V221.192H160.205ZM230.237 180.104H250.205V247.176C250.12 251.187 249.949 254.515 249.693 257.16C249.437 259.805 249.096 262.024 248.669 263.816C248.328 265.608 247.901 267.101 247.389 268.296C246.877 269.405 246.28 270.515 245.597 271.624C244.744 272.989 243.72 274.141 242.525 275.08C241.416 275.933 240.008 276.616 238.301 277.128C236.594 277.725 234.589 278.109 232.285 278.28C229.981 278.536 227.293 278.664 224.221 278.664C217.992 278.664 213.256 278.152 210.013 277.128C206.77 276.189 204.338 274.355 202.717 271.624C202.034 270.515 201.394 269.405 200.797 268.296C200.2 267.101 199.688 265.608 199.261 263.816C198.834 262.024 198.493 259.805 198.237 257.16C198.066 254.515 197.981 251.187 197.981 247.176V180.104H218.589V247.176C218.589 249.48 218.632 251.272 218.717 252.552C218.888 253.832 219.186 254.813 219.613 255.496C220.04 256.179 220.637 256.605 221.405 256.776C222.173 256.947 223.197 257.032 224.477 257.032C225.757 257.032 226.738 256.947 227.421 256.776C228.189 256.605 228.786 256.179 229.213 255.496C229.64 254.813 229.896 253.832 229.981 252.552C230.152 251.272 230.237 249.48 230.237 247.176V180.104ZM322.386 277V218.888H321.618L306.898 277H298.066L283.218 218.888H282.45V277H264.146V180.104H292.562L301.522 222.216H302.418L312.402 180.104H340.69L340.818 277H322.386ZM355.677 277V180.104H384.733C389.085 180.104 392.669 180.701 395.485 181.896C398.301 183.005 400.52 184.883 402.141 187.528C403.848 190.088 405 193.501 405.597 197.768C406.28 201.949 406.621 207.155 406.621 213.384C406.621 219.699 406.28 225.075 405.597 229.512C405 233.864 403.848 237.405 402.141 240.136C400.52 242.867 398.301 244.829 395.485 246.024C392.669 247.219 389.085 247.816 384.733 247.816H375.773V277H355.677ZM381.149 227.848C383.026 227.848 384.349 226.824 385.117 224.776C385.885 222.643 386.269 218.675 386.269 212.872C386.269 207.752 385.8 204.381 384.861 202.76C384.008 201.139 382.6 200.328 380.637 200.328H375.773V227.848H381.149ZM433.014 247.944C432.843 246.493 432.758 244.616 432.758 242.312C432.758 239.923 432.758 237.363 432.758 234.632C432.758 231.219 433.441 228.445 434.806 226.312C436.257 224.093 438.603 221.704 441.846 219.144C443.211 218.035 444.278 217.139 445.046 216.456C445.899 215.688 446.497 214.877 446.838 214.024C447.265 213.171 447.521 212.147 447.606 210.952C447.691 209.672 447.734 208.008 447.734 205.96C447.734 202.973 447.393 200.925 446.71 199.816C446.027 198.621 444.449 198.024 441.974 198.024C439.499 198.024 437.878 198.621 437.11 199.816C436.427 200.925 436.086 202.973 436.086 205.96C436.086 207.155 436.086 208.008 436.086 208.52C436.086 208.947 436.129 209.501 436.214 210.184H419.446C419.105 208.989 418.849 207.624 418.678 206.088C418.593 204.552 418.55 202.461 418.55 199.816C418.55 195.72 418.934 192.307 419.702 189.576C420.555 186.845 421.878 184.669 423.67 183.048C425.547 181.341 427.979 180.147 430.966 179.464C433.953 178.781 437.622 178.44 441.974 178.44C446.753 178.44 450.678 178.867 453.75 179.72C456.822 180.573 459.254 181.981 461.046 183.944C462.838 185.821 464.075 188.339 464.758 191.496C465.526 194.568 465.91 198.365 465.91 202.888C465.91 206.301 465.825 209.203 465.654 211.592C465.569 213.896 465.313 215.901 464.886 217.608C464.545 219.229 464.075 220.68 463.478 221.96C462.881 223.155 462.07 224.307 461.046 225.416C459.51 227.123 457.974 228.445 456.438 229.384C454.987 230.323 453.665 231.432 452.47 232.712C452.043 233.139 451.659 233.608 451.318 234.12C451.062 234.632 450.849 235.443 450.678 236.552C450.507 237.576 450.379 238.984 450.294 240.776C450.294 242.568 450.294 244.957 450.294 247.944H433.014ZM431.478 277V257.672H451.574V277H431.478ZM511.383 277V180.104H531.991V277H511.383ZM559.946 277V200.584H544.714V180.104H595.274V200.584H580.042V277H559.946ZM609.853 215.048L607.037 176.136H625.469L622.781 215.048H609.853ZM667.725 210.184C667.81 209.501 667.853 208.947 667.853 208.52C667.853 208.008 667.853 207.155 667.853 205.96C667.853 202.973 667.469 200.925 666.701 199.816C666.018 198.621 664.44 198.024 661.965 198.024C659.49 198.024 657.912 198.621 657.229 199.816C656.546 200.925 656.205 202.973 656.205 205.96C656.205 208.776 656.546 210.781 657.229 211.976C657.997 213.085 659.192 214.109 660.813 215.048C662.69 216.157 664.44 217.096 666.061 217.864C667.768 218.632 669.304 219.357 670.669 220.04C672.12 220.637 673.485 221.235 674.765 221.832C676.045 222.429 677.325 223.155 678.605 224.008C679.97 225.032 681.165 226.141 682.189 227.336C683.298 228.445 684.152 229.939 684.749 231.816C685.432 233.608 685.944 235.869 686.285 238.6C686.626 241.245 686.797 244.573 686.797 248.584C686.797 254.387 686.37 259.208 685.517 263.048C684.749 266.888 683.384 269.96 681.421 272.264C679.544 274.568 676.941 276.189 673.613 277.128C670.37 278.152 666.317 278.664 661.453 278.664C653.432 278.664 647.544 277.171 643.789 274.184C640.034 271.112 638.157 265.779 638.157 258.184C638.157 255.709 638.2 253.235 638.285 250.76C638.456 248.2 638.754 246.152 639.181 244.616H655.949C655.778 245.128 655.693 245.683 655.693 246.28C655.693 246.877 655.693 247.517 655.693 248.2C655.693 251.955 656.077 254.557 656.845 256.008C657.613 257.373 659.277 258.056 661.837 258.056C664.397 258.056 666.061 257.459 666.829 256.264C667.682 254.984 668.109 252.296 668.109 248.2C668.109 245.725 667.725 243.848 666.957 242.568C666.189 241.288 664.952 240.051 663.245 238.856C661.709 237.832 660.045 236.893 658.253 236.04C656.546 235.187 654.797 234.376 653.005 233.608C651.298 232.84 649.634 232.029 648.013 231.176C646.392 230.237 644.941 229.171 643.661 227.976C641.016 225.672 639.394 222.515 638.797 218.504C638.285 214.493 638.029 209.288 638.029 202.888C638.029 198.365 638.37 194.568 639.053 191.496C639.821 188.339 641.101 185.821 642.893 183.944C644.685 181.981 647.117 180.573 650.189 179.72C653.261 178.867 657.186 178.44 661.965 178.44C666.317 178.44 669.944 178.781 672.845 179.464C675.832 180.147 678.264 181.341 680.141 183.048C682.018 184.669 683.341 186.845 684.109 189.576C684.962 192.307 685.389 195.72 685.389 199.816C685.389 202.461 685.304 204.552 685.133 206.088C685.048 207.624 684.792 208.989 684.365 210.184H667.725ZM732.258 277V180.104H752.866V277H732.258ZM826.261 277V218.888H825.493L810.773 277H801.941L787.093 218.888H786.325V277H768.021V180.104H796.437L805.397 222.216H806.293L816.277 180.104H844.565L844.693 277H826.261ZM859.552 277V180.104H888.608C892.96 180.104 896.544 180.701 899.36 181.896C902.176 183.005 904.395 184.883 906.016 187.528C907.723 190.088 908.875 193.501 909.472 197.768C910.155 201.949 910.496 207.155 910.496 213.384C910.496 219.699 910.155 225.075 909.472 229.512C908.875 233.864 907.723 237.405 906.016 240.136C904.395 242.867 902.176 244.829 899.36 246.024C896.544 247.219 892.96 247.816 888.608 247.816H879.648V277H859.552ZM885.024 227.848C886.901 227.848 888.224 226.824 888.992 224.776C889.76 222.643 890.144 218.675 890.144 212.872C890.144 207.752 889.675 204.381 888.736 202.76C887.883 201.139 886.475 200.328 884.512 200.328H879.648V227.848H885.024ZM969.657 270.728C968.804 272.264 967.78 273.544 966.585 274.568C965.476 275.507 964.068 276.317 962.361 277C960.654 277.597 958.649 278.024 956.345 278.28C954.041 278.536 951.353 278.664 948.281 278.664C942.052 278.664 937.316 278.109 934.073 277C930.916 275.805 928.484 273.715 926.777 270.728C925.924 269.277 925.198 267.699 924.601 265.992C924.004 264.2 923.492 261.811 923.065 258.824C922.724 255.837 922.468 251.955 922.297 247.176C922.126 242.312 922.041 236.083 922.041 228.488C922.041 220.893 922.126 214.707 922.297 209.928C922.468 205.149 922.724 201.267 923.065 198.28C923.492 195.293 924.004 192.947 924.601 191.24C925.198 189.533 925.924 187.912 926.777 186.376C927.63 184.925 928.612 183.688 929.721 182.664C930.916 181.64 932.366 180.829 934.073 180.232C935.78 179.549 937.785 179.08 940.089 178.824C942.478 178.568 945.209 178.44 948.281 178.44C954.425 178.44 959.076 179.037 962.233 180.232C965.476 181.427 967.95 183.475 969.657 186.376C970.51 187.912 971.236 189.533 971.833 191.24C972.43 192.947 972.9 195.293 973.241 198.28C973.668 201.267 973.966 205.149 974.137 209.928C974.308 214.707 974.393 220.893 974.393 228.488C974.393 236.083 974.308 242.312 974.137 247.176C973.966 251.955 973.668 255.837 973.241 258.824C972.9 261.811 972.43 264.2 971.833 265.992C971.236 267.699 970.51 269.277 969.657 270.728ZM953.273 254.728C953.444 254.131 953.614 253.363 953.785 252.424C953.956 251.485 954.084 250.077 954.169 248.2C954.254 246.323 954.297 243.805 954.297 240.648C954.382 237.405 954.425 233.181 954.425 227.976C954.425 222.6 954.382 218.291 954.297 215.048C954.297 211.805 954.254 209.245 954.169 207.368C954.084 205.405 953.956 203.955 953.785 203.016C953.614 202.077 953.444 201.309 953.273 200.712C952.932 199.859 952.42 199.261 951.737 198.92C951.054 198.493 949.902 198.28 948.281 198.28C946.66 198.28 945.465 198.493 944.697 198.92C944.014 199.261 943.545 199.859 943.289 200.712C943.033 201.309 942.82 202.077 942.649 203.016C942.564 203.955 942.436 205.405 942.265 207.368C942.18 209.245 942.094 211.805 942.009 215.048C942.009 218.291 942.009 222.6 942.009 227.976C942.009 233.181 942.009 237.405 942.009 240.648C942.094 243.805 942.18 246.323 942.265 248.2C942.436 250.077 942.564 251.485 942.649 252.424C942.82 253.363 943.033 254.131 943.289 254.728C943.545 255.581 944.014 256.179 944.697 256.52C945.465 256.861 946.66 257.032 948.281 257.032C949.902 257.032 951.054 256.861 951.737 256.52C952.42 256.179 952.932 255.581 953.273 254.728ZM1015.62 210.184C1015.71 209.501 1015.75 208.947 1015.75 208.52C1015.75 208.008 1015.75 207.155 1015.75 205.96C1015.75 202.973 1015.37 200.925 1014.6 199.816C1013.92 198.621 1012.34 198.024 1009.87 198.024C1007.39 198.024 1005.81 198.621 1005.13 199.816C1004.45 200.925 1004.11 202.973 1004.11 205.96C1004.11 208.776 1004.45 210.781 1005.13 211.976C1005.9 213.085 1007.09 214.109 1008.71 215.048C1010.59 216.157 1012.34 217.096 1013.96 217.864C1015.67 218.632 1017.2 219.357 1018.57 220.04C1020.02 220.637 1021.39 221.235 1022.67 221.832C1023.95 222.429 1025.23 223.155 1026.51 224.008C1027.87 225.032 1029.07 226.141 1030.09 227.336C1031.2 228.445 1032.05 229.939 1032.65 231.816C1033.33 233.608 1033.84 235.869 1034.19 238.6C1034.53 241.245 1034.7 244.573 1034.7 248.584C1034.7 254.387 1034.27 259.208 1033.42 263.048C1032.65 266.888 1031.28 269.96 1029.32 272.264C1027.44 274.568 1024.84 276.189 1021.51 277.128C1018.27 278.152 1014.22 278.664 1009.35 278.664C1001.33 278.664 995.444 277.171 991.689 274.184C987.934 271.112 986.057 265.779 986.057 258.184C986.057 255.709 986.1 253.235 986.185 250.76C986.356 248.2 986.654 246.152 987.081 244.616H1003.85C1003.68 245.128 1003.59 245.683 1003.59 246.28C1003.59 246.877 1003.59 247.517 1003.59 248.2C1003.59 251.955 1003.98 254.557 1004.75 256.008C1005.51 257.373 1007.18 258.056 1009.74 258.056C1012.3 258.056 1013.96 257.459 1014.73 256.264C1015.58 254.984 1016.01 252.296 1016.01 248.2C1016.01 245.725 1015.63 243.848 1014.86 242.568C1014.09 241.288 1012.85 240.051 1011.15 238.856C1009.61 237.832 1007.95 236.893 1006.15 236.04C1004.45 235.187 1002.7 234.376 1000.91 233.608C999.198 232.84 997.534 232.029 995.913 231.176C994.292 230.237 992.841 229.171 991.561 227.976C988.916 225.672 987.294 222.515 986.697 218.504C986.185 214.493 985.929 209.288 985.929 202.888C985.929 198.365 986.27 194.568 986.953 191.496C987.721 188.339 989.001 185.821 990.793 183.944C992.585 181.981 995.017 180.573 998.089 179.72C1001.16 178.867 1005.09 178.44 1009.87 178.44C1014.22 178.44 1017.84 178.781 1020.75 179.464C1023.73 180.147 1026.16 181.341 1028.04 183.048C1029.92 184.669 1031.24 186.845 1032.01 189.576C1032.86 192.307 1033.29 195.72 1033.29 199.816C1033.29 202.461 1033.2 204.552 1033.03 206.088C1032.95 207.624 1032.69 208.989 1032.27 210.184H1015.62ZM1075.77 210.184C1075.86 209.501 1075.9 208.947 1075.9 208.52C1075.9 208.008 1075.9 207.155 1075.9 205.96C1075.9 202.973 1075.52 200.925 1074.75 199.816C1074.07 198.621 1072.49 198.024 1070.01 198.024C1067.54 198.024 1065.96 198.621 1065.28 199.816C1064.6 200.925 1064.25 202.973 1064.25 205.96C1064.25 208.776 1064.6 210.781 1065.28 211.976C1066.05 213.085 1067.24 214.109 1068.86 215.048C1070.74 216.157 1072.49 217.096 1074.11 217.864C1075.82 218.632 1077.35 219.357 1078.72 220.04C1080.17 220.637 1081.53 221.235 1082.81 221.832C1084.09 222.429 1085.37 223.155 1086.65 224.008C1088.02 225.032 1089.21 226.141 1090.24 227.336C1091.35 228.445 1092.2 229.939 1092.8 231.816C1093.48 233.608 1093.99 235.869 1094.33 238.6C1094.68 241.245 1094.85 244.573 1094.85 248.584C1094.85 254.387 1094.42 259.208 1093.57 263.048C1092.8 266.888 1091.43 269.96 1089.47 272.264C1087.59 274.568 1084.99 276.189 1081.66 277.128C1078.42 278.152 1074.37 278.664 1069.5 278.664C1061.48 278.664 1055.59 277.171 1051.84 274.184C1048.08 271.112 1046.21 265.779 1046.21 258.184C1046.21 255.709 1046.25 253.235 1046.33 250.76C1046.51 248.2 1046.8 246.152 1047.23 244.616H1064C1063.83 245.128 1063.74 245.683 1063.74 246.28C1063.74 246.877 1063.74 247.517 1063.74 248.2C1063.74 251.955 1064.13 254.557 1064.89 256.008C1065.66 257.373 1067.33 258.056 1069.89 258.056C1072.45 258.056 1074.11 257.459 1074.88 256.264C1075.73 254.984 1076.16 252.296 1076.16 248.2C1076.16 245.725 1075.77 243.848 1075.01 242.568C1074.24 241.288 1073 240.051 1071.29 238.856C1069.76 237.832 1068.09 236.893 1066.3 236.04C1064.6 235.187 1062.85 234.376 1061.05 233.608C1059.35 232.84 1057.68 232.029 1056.06 231.176C1054.44 230.237 1052.99 229.171 1051.71 227.976C1049.07 225.672 1047.44 222.515 1046.85 218.504C1046.33 214.493 1046.08 209.288 1046.08 202.888C1046.08 198.365 1046.42 194.568 1047.1 191.496C1047.87 188.339 1049.15 185.821 1050.94 183.944C1052.73 181.981 1055.17 180.573 1058.24 179.72C1061.31 178.867 1065.24 178.44 1070.01 178.44C1074.37 178.44 1077.99 178.781 1080.89 179.464C1083.88 180.147 1086.31 181.341 1088.19 183.048C1090.07 184.669 1091.39 186.845 1092.16 189.576C1093.01 192.307 1093.44 195.72 1093.44 199.816C1093.44 202.461 1093.35 204.552 1093.18 206.088C1093.1 207.624 1092.84 208.989 1092.41 210.184H1075.77ZM1108.53 277V180.104H1129.14V277H1108.53ZM1144.55 277V180.104H1173.35C1177.7 180.104 1181.29 180.616 1184.1 181.64C1187.01 182.579 1189.31 184.115 1191.02 186.248C1192.81 188.296 1194.05 190.984 1194.73 194.312C1195.5 197.555 1195.88 201.523 1195.88 206.216C1195.88 209.715 1195.75 212.573 1195.5 214.792C1195.33 217.011 1194.94 218.845 1194.34 220.296C1193.83 221.747 1193.15 222.941 1192.3 223.88C1191.44 224.819 1190.38 225.715 1189.1 226.568V227.464C1190.38 228.232 1191.49 228.957 1192.42 229.64C1193.45 230.323 1194.3 231.432 1194.98 232.968C1195.75 234.419 1196.31 236.552 1196.65 239.368C1196.99 242.099 1197.16 245.939 1197.16 250.888C1197.16 255.581 1196.82 259.592 1196.14 262.92C1195.45 266.163 1194.26 268.851 1192.55 270.984C1190.93 273.032 1188.71 274.568 1185.9 275.592C1183.08 276.531 1179.5 277 1175.14 277H1144.55ZM1171.05 257.416C1173.01 257.416 1174.42 256.819 1175.27 255.624C1176.21 254.429 1176.68 251.955 1176.68 248.2C1176.68 243.763 1176.3 240.605 1175.53 238.728C1174.76 236.851 1173.44 235.912 1171.56 235.912H1164.65V257.416H1171.05ZM1170.54 219.912C1172.5 219.912 1173.82 219.144 1174.5 217.608C1175.27 216.072 1175.66 213.128 1175.66 208.776C1175.66 204.936 1175.19 202.419 1174.25 201.224C1173.39 199.944 1171.99 199.304 1170.02 199.304H1164.65V219.912H1170.54ZM1209.83 277V180.104H1229.92V255.496H1250.66V277H1209.83ZM1263.1 277V180.104H1305.98V200.584H1283.2V217.608H1305.6V237.192H1283.2V255.496H1305.85V277H1263.1ZM1320.5 277V257.672H1340.6V277H1320.5ZM1387.43 277V180.104H1416.23C1420.58 180.104 1424.16 180.616 1426.98 181.64C1429.88 182.579 1432.18 184.115 1433.89 186.248C1435.68 188.296 1436.92 190.984 1437.6 194.312C1438.37 197.555 1438.75 201.523 1438.75 206.216C1438.75 209.715 1438.63 212.573 1438.37 214.792C1438.2 217.011 1437.82 218.845 1437.22 220.296C1436.71 221.747 1436.02 222.941 1435.17 223.88C1434.32 224.819 1433.25 225.715 1431.97 226.568V227.464C1433.25 228.232 1434.36 228.957 1435.3 229.64C1436.32 230.323 1437.18 231.432 1437.86 232.968C1438.63 234.419 1439.18 236.552 1439.52 239.368C1439.86 242.099 1440.03 245.939 1440.03 250.888C1440.03 255.581 1439.69 259.592 1439.01 262.92C1438.33 266.163 1437.13 268.851 1435.43 270.984C1433.81 273.032 1431.59 274.568 1428.77 275.592C1425.95 276.531 1422.37 277 1418.02 277H1387.43ZM1413.92 257.416C1415.89 257.416 1417.29 256.819 1418.15 255.624C1419.09 254.429 1419.55 251.955 1419.55 248.2C1419.55 243.763 1419.17 240.605 1418.4 238.728C1417.63 236.851 1416.31 235.912 1414.43 235.912H1407.52V257.416H1413.92ZM1413.41 219.912C1415.37 219.912 1416.7 219.144 1417.38 217.608C1418.15 216.072 1418.53 213.128 1418.53 208.776C1418.53 204.936 1418.06 202.419 1417.12 201.224C1416.27 199.944 1414.86 199.304 1412.9 199.304H1407.52V219.912H1413.41ZM1484.06 180.104H1504.03V247.176C1503.94 251.187 1503.77 254.515 1503.52 257.16C1503.26 259.805 1502.92 262.024 1502.49 263.816C1502.15 265.608 1501.73 267.101 1501.21 268.296C1500.7 269.405 1500.1 270.515 1499.42 271.624C1498.57 272.989 1497.54 274.141 1496.35 275.08C1495.24 275.933 1493.83 276.616 1492.13 277.128C1490.42 277.725 1488.41 278.109 1486.11 278.28C1483.81 278.536 1481.12 278.664 1478.05 278.664C1471.82 278.664 1467.08 278.152 1463.84 277.128C1460.6 276.189 1458.16 274.355 1456.54 271.624C1455.86 270.515 1455.22 269.405 1454.62 268.296C1454.02 267.101 1453.51 265.608 1453.09 263.816C1452.66 262.024 1452.32 259.805 1452.06 257.16C1451.89 254.515 1451.81 251.187 1451.81 247.176V180.104H1472.41V247.176C1472.41 249.48 1472.46 251.272 1472.54 252.552C1472.71 253.832 1473.01 254.813 1473.44 255.496C1473.86 256.179 1474.46 256.605 1475.23 256.776C1476 256.947 1477.02 257.032 1478.3 257.032C1479.58 257.032 1480.56 256.947 1481.25 256.776C1482.01 256.605 1482.61 256.179 1483.04 255.496C1483.46 254.813 1483.72 253.832 1483.81 252.552C1483.98 251.272 1484.06 249.48 1484.06 247.176V180.104ZM1530.77 277V200.584H1515.54V180.104H1566.1V200.584H1550.87V277H1530.77ZM86.4635 431V395.672L68.7995 334.744V334.104H89.5355C90.9008 340.163 91.9675 345.027 92.7355 348.696C93.5888 352.28 94.2288 355.181 94.6555 357.4C95.1675 359.533 95.5515 361.155 95.8075 362.264C96.0635 363.373 96.2768 364.44 96.4475 365.464H97.7275C97.8981 364.44 98.1115 363.373 98.3675 362.264C98.6235 361.155 98.9648 359.533 99.3915 357.4C99.9035 355.181 100.586 352.28 101.439 348.696C102.293 345.027 103.445 340.163 104.895 334.104H124.991V334.744L108.095 395.416V431H86.4635ZM179.369 424.728C178.516 426.264 177.492 427.544 176.297 428.568C175.188 429.507 173.78 430.317 172.073 431C170.367 431.597 168.361 432.024 166.057 432.28C163.753 432.536 161.065 432.664 157.993 432.664C151.764 432.664 147.028 432.109 143.785 431C140.628 429.805 138.196 427.715 136.489 424.728C135.636 423.277 134.911 421.699 134.313 419.992C133.716 418.2 133.204 415.811 132.777 412.824C132.436 409.837 132.18 405.955 132.009 401.176C131.839 396.312 131.753 390.083 131.753 382.488C131.753 374.893 131.839 368.707 132.009 363.928C132.18 359.149 132.436 355.267 132.777 352.28C133.204 349.293 133.716 346.947 134.313 345.24C134.911 343.533 135.636 341.912 136.489 340.376C137.343 338.925 138.324 337.688 139.433 336.664C140.628 335.64 142.079 334.829 143.785 334.232C145.492 333.549 147.497 333.08 149.801 332.824C152.191 332.568 154.921 332.44 157.993 332.44C164.137 332.44 168.788 333.037 171.945 334.232C175.188 335.427 177.663 337.475 179.369 340.376C180.223 341.912 180.948 343.533 181.545 345.24C182.143 346.947 182.612 349.293 182.953 352.28C183.38 355.267 183.679 359.149 183.849 363.928C184.02 368.707 184.105 374.893 184.105 382.488C184.105 390.083 184.02 396.312 183.849 401.176C183.679 405.955 183.38 409.837 182.953 412.824C182.612 415.811 182.143 418.2 181.545 419.992C180.948 421.699 180.223 423.277 179.369 424.728ZM162.985 408.728C163.156 408.131 163.327 407.363 163.497 406.424C163.668 405.485 163.796 404.077 163.881 402.2C163.967 400.323 164.009 397.805 164.009 394.648C164.095 391.405 164.137 387.181 164.137 381.976C164.137 376.6 164.095 372.291 164.009 369.048C164.009 365.805 163.967 363.245 163.881 361.368C163.796 359.405 163.668 357.955 163.497 357.016C163.327 356.077 163.156 355.309 162.985 354.712C162.644 353.859 162.132 353.261 161.449 352.92C160.767 352.493 159.615 352.28 157.993 352.28C156.372 352.28 155.177 352.493 154.409 352.92C153.727 353.261 153.257 353.859 153.001 354.712C152.745 355.309 152.532 356.077 152.361 357.016C152.276 357.955 152.148 359.405 151.977 361.368C151.892 363.245 151.807 365.805 151.721 369.048C151.721 372.291 151.721 376.6 151.721 381.976C151.721 387.181 151.721 391.405 151.721 394.648C151.807 397.805 151.892 400.323 151.977 402.2C152.148 404.077 152.276 405.485 152.361 406.424C152.532 407.363 152.745 408.131 153.001 408.728C153.257 409.581 153.727 410.179 154.409 410.52C155.177 410.861 156.372 411.032 157.993 411.032C159.615 411.032 160.767 410.861 161.449 410.52C162.132 410.179 162.644 409.581 162.985 408.728ZM229.049 334.104H249.017V401.176C248.932 405.187 248.761 408.515 248.505 411.16C248.249 413.805 247.908 416.024 247.481 417.816C247.14 419.608 246.713 421.101 246.201 422.296C245.689 423.405 245.092 424.515 244.409 425.624C243.556 426.989 242.532 428.141 241.337 429.08C240.228 429.933 238.82 430.616 237.113 431.128C235.407 431.725 233.401 432.109 231.097 432.28C228.793 432.536 226.105 432.664 223.033 432.664C216.804 432.664 212.068 432.152 208.825 431.128C205.583 430.189 203.151 428.355 201.529 425.624C200.847 424.515 200.207 423.405 199.609 422.296C199.012 421.101 198.5 419.608 198.073 417.816C197.647 416.024 197.305 413.805 197.049 411.16C196.879 408.515 196.793 405.187 196.793 401.176V334.104H217.401V401.176C217.401 403.48 217.444 405.272 217.529 406.552C217.7 407.832 217.999 408.813 218.425 409.496C218.852 410.179 219.449 410.605 220.217 410.776C220.985 410.947 222.009 411.032 223.289 411.032C224.569 411.032 225.551 410.947 226.233 410.776C227.001 410.605 227.599 410.179 228.025 409.496C228.452 408.813 228.708 407.832 228.793 406.552C228.964 405.272 229.049 403.48 229.049 401.176V334.104ZM344.909 393.88C345.165 396.952 345.293 399.853 345.293 402.584C345.293 407.704 344.995 412.184 344.397 416.024C343.885 419.779 342.733 422.893 340.941 425.368C339.149 427.843 336.589 429.677 333.261 430.872C330.019 432.067 325.709 432.664 320.333 432.664C313.933 432.664 309.027 432.109 305.613 431C302.285 429.805 299.811 427.715 298.189 424.728C297.336 423.363 296.611 421.741 296.013 419.864C295.416 417.987 294.904 415.469 294.477 412.312C294.136 409.155 293.88 405.144 293.709 400.28C293.539 395.416 293.453 389.229 293.453 381.72C293.453 374.211 293.539 368.109 293.709 363.416C293.88 358.723 294.136 354.883 294.477 351.896C294.904 348.909 295.416 346.563 296.013 344.856C296.611 343.149 297.336 341.571 298.189 340.12C299.896 337.219 302.371 335.213 305.613 334.104C308.856 332.995 313.549 332.44 319.693 332.44C325.155 332.44 329.549 332.952 332.877 333.976C336.205 335 338.765 336.664 340.557 338.968C342.349 341.272 343.544 344.259 344.141 347.928C344.739 351.512 345.037 355.864 345.037 360.984C345.037 362.179 344.995 363.501 344.909 364.952C344.909 366.403 344.867 367.939 344.781 369.56H325.965C325.965 367 325.923 364.867 325.837 363.16C325.837 361.453 325.795 360.045 325.709 358.936C325.624 357.827 325.496 356.973 325.325 356.376C325.24 355.693 325.155 355.139 325.069 354.712C324.728 353.091 322.936 352.28 319.693 352.28C318.072 352.28 316.877 352.493 316.109 352.92C315.427 353.261 314.957 353.859 314.701 354.712C314.445 355.395 314.232 356.205 314.061 357.144C313.976 357.997 313.848 359.363 313.677 361.24C313.592 363.032 313.507 365.549 313.421 368.792C313.421 372.035 313.421 376.259 313.421 381.464C313.421 386.84 313.421 391.149 313.421 394.392C313.507 397.635 313.592 400.195 313.677 402.072C313.848 403.949 313.976 405.357 314.061 406.296C314.232 407.235 314.445 408.045 314.701 408.728C314.957 409.581 315.469 410.179 316.237 410.52C317.005 410.861 318.371 411.032 320.333 411.032C322.893 411.032 324.429 410.307 324.941 408.856C325.283 408.003 325.539 407.107 325.709 406.168C325.88 405.229 326.008 404.205 326.093 403.096C326.179 401.901 326.221 400.579 326.221 399.128C326.307 397.592 326.349 395.843 326.349 393.88H344.909ZM388.1 431L386.436 408.6H376.708L375.172 431H354.948L365.316 334.104H399.108L408.836 431H388.1ZM382.212 354.328H380.804L377.604 389.016H385.54L382.212 354.328ZM463.02 431L440.108 379.032H439.34V431H421.036V334.104H440.748L454.316 367.768H455.084V334.104H473.516V431H463.02ZM520.089 431V334.104H548.889C553.241 334.104 556.825 334.616 559.641 335.64C562.543 336.579 564.847 338.115 566.553 340.248C568.345 342.296 569.583 344.984 570.265 348.312C571.033 351.555 571.417 355.523 571.417 360.216C571.417 363.715 571.289 366.573 571.033 368.792C570.863 371.011 570.479 372.845 569.881 374.296C569.369 375.747 568.687 376.941 567.833 377.88C566.98 378.819 565.913 379.715 564.633 380.568V381.464C565.913 382.232 567.023 382.957 567.961 383.64C568.985 384.323 569.839 385.432 570.521 386.968C571.289 388.419 571.844 390.552 572.185 393.368C572.527 396.099 572.697 399.939 572.697 404.888C572.697 409.581 572.356 413.592 571.673 416.92C570.991 420.163 569.796 422.851 568.089 424.984C566.468 427.032 564.249 428.568 561.433 429.592C558.617 430.531 555.033 431 550.681 431H520.089ZM546.585 411.416C548.548 411.416 549.956 410.819 550.809 409.624C551.748 408.429 552.217 405.955 552.217 402.2C552.217 397.763 551.833 394.605 551.065 392.728C550.297 390.851 548.975 389.912 547.097 389.912H540.185V411.416H546.585ZM546.073 373.912C548.036 373.912 549.359 373.144 550.041 371.608C550.809 370.072 551.193 367.128 551.193 362.776C551.193 358.936 550.724 356.419 549.785 355.224C548.932 353.944 547.524 353.304 545.561 353.304H540.185V373.912H546.073ZM585.364 431V334.104H628.244V354.584H605.46V371.608H627.86V391.192H605.46V409.496H628.116V431H585.364ZM674.54 431V334.104H717.42V354.584H694.636V371.608H717.036V391.192H694.636V409.496H717.292V431H674.54ZM740.643 431L729.123 334.104H750.883L756.259 402.328H757.667L762.787 334.104H784.163L772.003 431H740.643ZM796.464 431V334.104H839.344V354.584H816.56V371.608H838.96V391.192H816.56V409.496H839.216V431H796.464ZM895.72 431L872.808 379.032H872.04V431H853.736V334.104H873.448L887.016 367.768H887.784V334.104H906.216V431H895.72ZM1002.71 393.88C1002.97 396.952 1003.09 399.853 1003.09 402.584C1003.09 407.704 1002.79 412.184 1002.2 416.024C1001.69 419.779 1000.53 422.893 998.742 425.368C996.95 427.843 994.39 429.677 991.062 430.872C987.819 432.067 983.51 432.664 978.134 432.664C971.734 432.664 966.827 432.109 963.414 431C960.086 429.805 957.611 427.715 955.99 424.728C955.136 423.363 954.411 421.741 953.814 419.864C953.216 417.987 952.704 415.469 952.278 412.312C951.936 409.155 951.68 405.144 951.51 400.28C951.339 395.416 951.254 389.229 951.254 381.72C951.254 374.211 951.339 368.109 951.51 363.416C951.68 358.723 951.936 354.883 952.278 351.896C952.704 348.909 953.216 346.563 953.814 344.856C954.411 343.149 955.136 341.571 955.99 340.12C957.696 337.219 960.171 335.213 963.414 334.104C966.656 332.995 971.35 332.44 977.494 332.44C982.955 332.44 987.35 332.952 990.678 333.976C994.006 335 996.566 336.664 998.358 338.968C1000.15 341.272 1001.34 344.259 1001.94 347.928C1002.54 351.512 1002.84 355.864 1002.84 360.984C1002.84 362.179 1002.79 363.501 1002.71 364.952C1002.71 366.403 1002.67 367.939 1002.58 369.56H983.766C983.766 367 983.723 364.867 983.638 363.16C983.638 361.453 983.595 360.045 983.51 358.936C983.424 357.827 983.296 356.973 983.126 356.376C983.04 355.693 982.955 355.139 982.87 354.712C982.528 353.091 980.736 352.28 977.494 352.28C975.872 352.28 974.678 352.493 973.91 352.92C973.227 353.261 972.758 353.859 972.502 354.712C972.246 355.395 972.032 356.205 971.862 357.144C971.776 357.997 971.648 359.363 971.478 361.24C971.392 363.032 971.307 365.549 971.222 368.792C971.222 372.035 971.222 376.259 971.222 381.464C971.222 386.84 971.222 391.149 971.222 394.392C971.307 397.635 971.392 400.195 971.478 402.072C971.648 403.949 971.776 405.357 971.862 406.296C972.032 407.235 972.246 408.045 972.502 408.728C972.758 409.581 973.27 410.179 974.038 410.52C974.806 410.861 976.171 411.032 978.134 411.032C980.694 411.032 982.23 410.307 982.742 408.856C983.083 408.003 983.339 407.107 983.51 406.168C983.68 405.229 983.808 404.205 983.894 403.096C983.979 401.901 984.022 400.579 984.022 399.128C984.107 397.592 984.15 395.843 984.15 393.88H1002.71ZM1063.14 424.728C1062.29 426.264 1061.27 427.544 1060.07 428.568C1058.96 429.507 1057.56 430.317 1055.85 431C1054.14 431.597 1052.14 432.024 1049.83 432.28C1047.53 432.536 1044.84 432.664 1041.77 432.664C1035.54 432.664 1030.8 432.109 1027.56 431C1024.4 429.805 1021.97 427.715 1020.26 424.728C1019.41 423.277 1018.69 421.699 1018.09 419.992C1017.49 418.2 1016.98 415.811 1016.55 412.824C1016.21 409.837 1015.96 405.955 1015.78 401.176C1015.61 396.312 1015.53 390.083 1015.53 382.488C1015.53 374.893 1015.61 368.707 1015.78 363.928C1015.96 359.149 1016.21 355.267 1016.55 352.28C1016.98 349.293 1017.49 346.947 1018.09 345.24C1018.69 343.533 1019.41 341.912 1020.26 340.376C1021.12 338.925 1022.1 337.688 1023.21 336.664C1024.4 335.64 1025.85 334.829 1027.56 334.232C1029.27 333.549 1031.27 333.08 1033.58 332.824C1035.97 332.568 1038.7 332.44 1041.77 332.44C1047.91 332.44 1052.56 333.037 1055.72 334.232C1058.96 335.427 1061.44 337.475 1063.14 340.376C1064 341.912 1064.72 343.533 1065.32 345.24C1065.92 346.947 1066.39 349.293 1066.73 352.28C1067.16 355.267 1067.45 359.149 1067.62 363.928C1067.8 368.707 1067.88 374.893 1067.88 382.488C1067.88 390.083 1067.8 396.312 1067.62 401.176C1067.45 405.955 1067.16 409.837 1066.73 412.824C1066.39 415.811 1065.92 418.2 1065.32 419.992C1064.72 421.699 1064 423.277 1063.14 424.728ZM1046.76 408.728C1046.93 408.131 1047.1 407.363 1047.27 406.424C1047.44 405.485 1047.57 404.077 1047.66 402.2C1047.74 400.323 1047.78 397.805 1047.78 394.648C1047.87 391.405 1047.91 387.181 1047.91 381.976C1047.91 376.6 1047.87 372.291 1047.78 369.048C1047.78 365.805 1047.74 363.245 1047.66 361.368C1047.57 359.405 1047.44 357.955 1047.27 357.016C1047.1 356.077 1046.93 355.309 1046.76 354.712C1046.42 353.859 1045.91 353.261 1045.22 352.92C1044.54 352.493 1043.39 352.28 1041.77 352.28C1040.15 352.28 1038.95 352.493 1038.18 352.92C1037.5 353.261 1037.03 353.859 1036.78 354.712C1036.52 355.309 1036.31 356.077 1036.14 357.016C1036.05 357.955 1035.92 359.405 1035.75 361.368C1035.67 363.245 1035.58 365.805 1035.5 369.048C1035.5 372.291 1035.5 376.6 1035.5 381.976C1035.5 387.181 1035.5 391.405 1035.5 394.648C1035.58 397.805 1035.67 400.323 1035.75 402.2C1035.92 404.077 1036.05 405.485 1036.14 406.424C1036.31 407.363 1036.52 408.131 1036.78 408.728C1037.03 409.581 1037.5 410.179 1038.18 410.52C1038.95 410.861 1040.15 411.032 1041.77 411.032C1043.39 411.032 1044.54 410.861 1045.22 410.52C1045.91 410.179 1046.42 409.581 1046.76 408.728ZM1127.54 424.728C1126.69 426.264 1125.67 427.544 1124.47 428.568C1123.36 429.507 1121.96 430.317 1120.25 431C1118.54 431.597 1116.54 432.024 1114.23 432.28C1111.93 432.536 1109.24 432.664 1106.17 432.664C1099.94 432.664 1095.2 432.109 1091.96 431C1088.8 429.805 1086.37 427.715 1084.66 424.728C1083.81 423.277 1083.09 421.699 1082.49 419.992C1081.89 418.2 1081.38 415.811 1080.95 412.824C1080.61 409.837 1080.36 405.955 1080.18 401.176C1080.01 396.312 1079.93 390.083 1079.93 382.488C1079.93 374.893 1080.01 368.707 1080.18 363.928C1080.36 359.149 1080.61 355.267 1080.95 352.28C1081.38 349.293 1081.89 346.947 1082.49 345.24C1083.09 343.533 1083.81 341.912 1084.66 340.376C1085.52 338.925 1086.5 337.688 1087.61 336.664C1088.8 335.64 1090.25 334.829 1091.96 334.232C1093.67 333.549 1095.67 333.08 1097.98 332.824C1100.37 332.568 1103.1 332.44 1106.17 332.44C1112.31 332.44 1116.96 333.037 1120.12 334.232C1123.36 335.427 1125.84 337.475 1127.54 340.376C1128.4 341.912 1129.12 343.533 1129.72 345.24C1130.32 346.947 1130.79 349.293 1131.13 352.28C1131.56 355.267 1131.85 359.149 1132.02 363.928C1132.2 368.707 1132.28 374.893 1132.28 382.488C1132.28 390.083 1132.2 396.312 1132.02 401.176C1131.85 405.955 1131.56 409.837 1131.13 412.824C1130.79 415.811 1130.32 418.2 1129.72 419.992C1129.12 421.699 1128.4 423.277 1127.54 424.728ZM1111.16 408.728C1111.33 408.131 1111.5 407.363 1111.67 406.424C1111.84 405.485 1111.97 404.077 1112.06 402.2C1112.14 400.323 1112.18 397.805 1112.18 394.648C1112.27 391.405 1112.31 387.181 1112.31 381.976C1112.31 376.6 1112.27 372.291 1112.18 369.048C1112.18 365.805 1112.14 363.245 1112.06 361.368C1111.97 359.405 1111.84 357.955 1111.67 357.016C1111.5 356.077 1111.33 355.309 1111.16 354.712C1110.82 353.859 1110.31 353.261 1109.62 352.92C1108.94 352.493 1107.79 352.28 1106.17 352.28C1104.55 352.28 1103.35 352.493 1102.58 352.92C1101.9 353.261 1101.43 353.859 1101.18 354.712C1100.92 355.309 1100.71 356.077 1100.54 357.016C1100.45 357.955 1100.32 359.405 1100.15 361.368C1100.07 363.245 1099.98 365.805 1099.9 369.048C1099.9 372.291 1099.9 376.6 1099.9 381.976C1099.9 387.181 1099.9 391.405 1099.9 394.648C1099.98 397.805 1100.07 400.323 1100.15 402.2C1100.32 404.077 1100.45 405.485 1100.54 406.424C1100.71 407.363 1100.92 408.131 1101.18 408.728C1101.43 409.581 1101.9 410.179 1102.58 410.52C1103.35 410.861 1104.55 411.032 1106.17 411.032C1107.79 411.032 1108.94 410.861 1109.62 410.52C1110.31 410.179 1110.82 409.581 1111.16 408.728ZM1145.86 431V334.104H1165.96V409.496H1186.7V431H1145.86ZM1199.14 431V334.104H1242.02V354.584H1219.24V371.608H1241.64V391.192H1219.24V409.496H1241.89V431H1199.14ZM1288.28 431C1288.03 430.232 1287.77 429.421 1287.52 428.568C1287.34 427.629 1287.13 426.264 1286.88 424.472C1286.62 422.595 1286.28 420.035 1285.85 416.792C1285.42 413.549 1284.91 409.112 1284.32 403.48C1284.06 401.261 1283.8 399.469 1283.55 398.104C1283.29 396.739 1282.99 395.715 1282.65 395.032C1282.31 394.264 1281.88 393.795 1281.37 393.624C1280.86 393.368 1280.3 393.24 1279.71 393.24H1276.64V431H1256.54V334.104H1285.85C1290.2 334.104 1293.79 334.616 1296.6 335.64C1299.42 336.579 1301.64 338.115 1303.26 340.248C1304.97 342.296 1306.12 344.984 1306.72 348.312C1307.4 351.555 1307.74 355.523 1307.74 360.216C1307.74 365.251 1307.57 369.219 1307.23 372.12C1306.89 374.936 1306.33 377.155 1305.56 378.776C1304.88 380.397 1304.03 381.635 1303 382.488C1301.98 383.256 1300.78 384.024 1299.42 384.792V385.56C1299.93 385.987 1300.44 386.456 1300.96 386.968C1301.55 387.48 1302.06 388.333 1302.49 389.528C1303.17 391.064 1303.86 393.411 1304.54 396.568C1305.31 399.64 1306.03 403.992 1306.72 409.624C1307.23 413.549 1307.61 416.707 1307.87 419.096C1308.12 421.485 1308.34 423.405 1308.51 424.856C1308.76 426.307 1308.93 427.416 1309.02 428.184C1309.19 428.952 1309.4 429.677 1309.66 430.36V431H1288.28ZM1282.27 375.192C1284.14 375.192 1285.47 374.424 1286.24 372.888C1287 371.267 1287.39 368.195 1287.39 363.672C1287.39 359.832 1286.92 357.272 1285.98 355.992C1285.13 354.712 1283.72 354.072 1281.76 354.072H1276.64V375.192H1282.27ZM1322.83 449.176V448.408L1329.1 430.872L1328.72 429.72H1322.06V411.672H1342.16V430.488L1332.56 449.176H1322.83ZM1388.99 431V334.104H1417.79C1422.14 334.104 1425.73 334.616 1428.54 335.64C1431.44 336.579 1433.75 338.115 1435.45 340.248C1437.25 342.296 1438.48 344.984 1439.17 348.312C1439.93 351.555 1440.32 355.523 1440.32 360.216C1440.32 363.715 1440.19 366.573 1439.93 368.792C1439.76 371.011 1439.38 372.845 1438.78 374.296C1438.27 375.747 1437.59 376.941 1436.73 377.88C1435.88 378.819 1434.81 379.715 1433.53 380.568V381.464C1434.81 382.232 1435.92 382.957 1436.86 383.64C1437.89 384.323 1438.74 385.432 1439.42 386.968C1440.19 388.419 1440.74 390.552 1441.09 393.368C1441.43 396.099 1441.6 399.939 1441.6 404.888C1441.6 409.581 1441.26 413.592 1440.57 416.92C1439.89 420.163 1438.7 422.851 1436.99 424.984C1435.37 427.032 1433.15 428.568 1430.33 429.592C1427.52 430.531 1423.93 431 1419.58 431H1388.99ZM1415.49 411.416C1417.45 411.416 1418.86 410.819 1419.71 409.624C1420.65 408.429 1421.12 405.955 1421.12 402.2C1421.12 397.763 1420.73 394.605 1419.97 392.728C1419.2 390.851 1417.87 389.912 1416 389.912H1409.09V411.416H1415.49ZM1414.97 373.912C1416.94 373.912 1418.26 373.144 1418.94 371.608C1419.71 370.072 1420.09 367.128 1420.09 362.776C1420.09 358.936 1419.62 356.419 1418.69 355.224C1417.83 353.944 1416.42 353.304 1414.46 353.304H1409.09V373.912H1414.97ZM1485.62 334.104H1505.59V401.176C1505.51 405.187 1505.34 408.515 1505.08 411.16C1504.82 413.805 1504.48 416.024 1504.06 417.816C1503.72 419.608 1503.29 421.101 1502.78 422.296C1502.26 423.405 1501.67 424.515 1500.98 425.624C1500.13 426.989 1499.11 428.141 1497.91 429.08C1496.8 429.933 1495.4 430.616 1493.69 431.128C1491.98 431.725 1489.98 432.109 1487.67 432.28C1485.37 432.536 1482.68 432.664 1479.61 432.664C1473.38 432.664 1468.64 432.152 1465.4 431.128C1462.16 430.189 1459.73 428.355 1458.1 425.624C1457.42 424.515 1456.78 423.405 1456.18 422.296C1455.59 421.101 1455.08 419.608 1454.65 417.816C1454.22 416.024 1453.88 413.805 1453.62 411.16C1453.45 408.515 1453.37 405.187 1453.37 401.176V334.104H1473.98V401.176C1473.98 403.48 1474.02 405.272 1474.1 406.552C1474.28 407.832 1474.57 408.813 1475 409.496C1475.43 410.179 1476.02 410.605 1476.79 410.776C1477.56 410.947 1478.58 411.032 1479.86 411.032C1481.14 411.032 1482.13 410.947 1482.81 410.776C1483.58 410.605 1484.17 410.179 1484.6 409.496C1485.03 408.813 1485.28 407.832 1485.37 406.552C1485.54 405.272 1485.62 403.48 1485.62 401.176V334.104ZM1532.33 431V354.584H1517.1V334.104H1567.66V354.584H1552.43V431H1532.33ZM109.032 578.728C108.179 580.264 107.155 581.544 105.96 582.568C104.851 583.507 103.443 584.317 101.736 585C100.029 585.597 98.024 586.024 95.72 586.28C93.416 586.536 90.728 586.664 87.656 586.664C81.4266 586.664 76.6906 586.109 73.448 585C70.2906 583.805 67.8586 581.715 66.152 578.728C65.2986 577.277 64.5733 575.699 63.976 573.992C63.3786 572.2 62.8666 569.811 62.44 566.824C62.0986 563.837 61.8426 559.955 61.672 555.176C61.5013 550.312 61.416 544.083 61.416 536.488C61.416 528.893 61.5013 522.707 61.672 517.928C61.8426 513.149 62.0986 509.267 62.44 506.28C62.8666 503.293 63.3786 500.947 63.976 499.24C64.5733 497.533 65.2986 495.912 66.152 494.376C67.0053 492.925 67.9866 491.688 69.096 490.664C70.2906 489.64 71.7413 488.829 73.448 488.232C75.1546 487.549 77.16 487.08 79.464 486.824C81.8533 486.568 84.584 486.44 87.656 486.44C93.8 486.44 98.4506 487.037 101.608 488.232C104.851 489.427 107.325 491.475 109.032 494.376C109.885 495.912 110.611 497.533 111.208 499.24C111.805 500.947 112.275 503.293 112.616 506.28C113.043 509.267 113.341 513.149 113.512 517.928C113.683 522.707 113.768 528.893 113.768 536.488C113.768 544.083 113.683 550.312 113.512 555.176C113.341 559.955 113.043 563.837 112.616 566.824C112.275 569.811 111.805 572.2 111.208 573.992C110.611 575.699 109.885 577.277 109.032 578.728ZM92.648 562.728C92.8186 562.131 92.9893 561.363 93.16 560.424C93.3306 559.485 93.4586 558.077 93.544 556.2C93.6293 554.323 93.672 551.805 93.672 548.648C93.7573 545.405 93.8 541.181 93.8 535.976C93.8 530.6 93.7573 526.291 93.672 523.048C93.672 519.805 93.6293 517.245 93.544 515.368C93.4586 513.405 93.3306 511.955 93.16 511.016C92.9893 510.077 92.8186 509.309 92.648 508.712C92.3066 507.859 91.7946 507.261 91.112 506.92C90.4293 506.493 89.2773 506.28 87.656 506.28C86.0346 506.28 84.84 506.493 84.072 506.92C83.3893 507.261 82.92 507.859 82.664 508.712C82.408 509.309 82.1946 510.077 82.024 511.016C81.9386 511.955 81.8106 513.405 81.64 515.368C81.5546 517.245 81.4693 519.805 81.384 523.048C81.384 526.291 81.384 530.6 81.384 535.976C81.384 541.181 81.384 545.405 81.384 548.648C81.4693 551.805 81.5546 554.323 81.64 556.2C81.8106 558.077 81.9386 559.485 82.024 560.424C82.1946 561.363 82.408 562.131 82.664 562.728C82.92 563.581 83.3893 564.179 84.072 564.52C84.84 564.861 86.0346 565.032 87.656 565.032C89.2773 565.032 90.4293 564.861 91.112 564.52C91.7946 564.179 92.3066 563.581 92.648 562.728ZM169.208 585L146.296 533.032H145.528V585H127.224V488.104H146.936L160.504 521.768H161.272V488.104H179.704V585H169.208ZM194.502 585V488.104H214.598V563.496H235.334V585H194.502ZM252.726 585V549.672L235.062 488.744V488.104H255.798C257.163 494.163 258.23 499.027 258.998 502.696C259.851 506.28 260.491 509.181 260.918 511.4C261.43 513.533 261.814 515.155 262.07 516.264C262.326 517.373 262.539 518.44 262.71 519.464H263.99C264.161 518.44 264.374 517.373 264.63 516.264C264.886 515.155 265.227 513.533 265.654 511.4C266.166 509.181 266.849 506.28 267.702 502.696C268.555 499.027 269.707 494.163 271.158 488.104H291.254V488.744L274.358 549.416V585H252.726ZM334.583 585V488.104H355.191V585H334.583ZM412.458 585L389.546 533.032H388.778V585H370.474V488.104H390.186L403.754 521.768H404.522V488.104H422.954V585H412.458ZM515.607 578.728C514.754 580.264 513.73 581.544 512.535 582.568C511.426 583.507 510.018 584.317 508.311 585C506.604 585.597 504.599 586.024 502.295 586.28C499.991 586.536 497.303 586.664 494.231 586.664C488.002 586.664 483.266 586.109 480.023 585C476.866 583.805 474.434 581.715 472.727 578.728C471.874 577.277 471.148 575.699 470.551 573.992C469.954 572.2 469.442 569.811 469.015 566.824C468.674 563.837 468.418 559.955 468.247 555.176C468.076 550.312 467.991 544.083 467.991 536.488C467.991 528.893 468.076 522.707 468.247 517.928C468.418 513.149 468.674 509.267 469.015 506.28C469.442 503.293 469.954 500.947 470.551 499.24C471.148 497.533 471.874 495.912 472.727 494.376C473.58 492.925 474.562 491.688 475.671 490.664C476.866 489.64 478.316 488.829 480.023 488.232C481.73 487.549 483.735 487.08 486.039 486.824C488.428 486.568 491.159 486.44 494.231 486.44C500.375 486.44 505.026 487.037 508.183 488.232C511.426 489.427 513.9 491.475 515.607 494.376C516.46 495.912 517.186 497.533 517.783 499.24C518.38 500.947 518.85 503.293 519.191 506.28C519.618 509.267 519.916 513.149 520.087 517.928C520.258 522.707 520.343 528.893 520.343 536.488C520.343 544.083 520.258 550.312 520.087 555.176C519.916 559.955 519.618 563.837 519.191 566.824C518.85 569.811 518.38 572.2 517.783 573.992C517.186 575.699 516.46 577.277 515.607 578.728ZM499.223 562.728C499.394 562.131 499.564 561.363 499.735 560.424C499.906 559.485 500.034 558.077 500.119 556.2C500.204 554.323 500.247 551.805 500.247 548.648C500.332 545.405 500.375 541.181 500.375 535.976C500.375 530.6 500.332 526.291 500.247 523.048C500.247 519.805 500.204 517.245 500.119 515.368C500.034 513.405 499.906 511.955 499.735 511.016C499.564 510.077 499.394 509.309 499.223 508.712C498.882 507.859 498.37 507.261 497.687 506.92C497.004 506.493 495.852 506.28 494.231 506.28C492.61 506.28 491.415 506.493 490.647 506.92C489.964 507.261 489.495 507.859 489.239 508.712C488.983 509.309 488.77 510.077 488.599 511.016C488.514 511.955 488.386 513.405 488.215 515.368C488.13 517.245 488.044 519.805 487.959 523.048C487.959 526.291 487.959 530.6 487.959 535.976C487.959 541.181 487.959 545.405 487.959 548.648C488.044 551.805 488.13 554.323 488.215 556.2C488.386 558.077 488.514 559.485 488.599 560.424C488.77 561.363 488.983 562.131 489.239 562.728C489.495 563.581 489.964 564.179 490.647 564.52C491.415 564.861 492.61 565.032 494.231 565.032C495.852 565.032 497.004 564.861 497.687 564.52C498.37 564.179 498.882 563.581 499.223 562.728ZM565.287 488.104H585.255V555.176C585.17 559.187 584.999 562.515 584.743 565.16C584.487 567.805 584.146 570.024 583.719 571.816C583.378 573.608 582.951 575.101 582.439 576.296C581.927 577.405 581.33 578.515 580.647 579.624C579.794 580.989 578.77 582.141 577.575 583.08C576.466 583.933 575.058 584.616 573.351 585.128C571.644 585.725 569.639 586.109 567.335 586.28C565.031 586.536 562.343 586.664 559.271 586.664C553.042 586.664 548.306 586.152 545.063 585.128C541.82 584.189 539.388 582.355 537.767 579.624C537.084 578.515 536.444 577.405 535.847 576.296C535.25 575.101 534.738 573.608 534.311 571.816C533.884 570.024 533.543 567.805 533.287 565.16C533.116 562.515 533.031 559.187 533.031 555.176V488.104H553.639V555.176C553.639 557.48 553.682 559.272 553.767 560.552C553.938 561.832 554.236 562.813 554.663 563.496C555.09 564.179 555.687 564.605 556.455 564.776C557.223 564.947 558.247 565.032 559.527 565.032C560.807 565.032 561.788 564.947 562.471 564.776C563.239 564.605 563.836 564.179 564.263 563.496C564.69 562.813 564.946 561.832 565.031 560.552C565.202 559.272 565.287 557.48 565.287 555.176V488.104ZM631.196 585C630.94 584.232 630.684 583.421 630.428 582.568C630.257 581.629 630.044 580.264 629.788 578.472C629.532 576.595 629.191 574.035 628.764 570.792C628.337 567.549 627.825 563.112 627.228 557.48C626.972 555.261 626.716 553.469 626.46 552.104C626.204 550.739 625.905 549.715 625.564 549.032C625.223 548.264 624.796 547.795 624.284 547.624C623.772 547.368 623.217 547.24 622.62 547.24H619.548V585H599.452V488.104H628.764C633.116 488.104 636.7 488.616 639.516 489.64C642.332 490.579 644.551 492.115 646.172 494.248C647.879 496.296 649.031 498.984 649.628 502.312C650.311 505.555 650.652 509.523 650.652 514.216C650.652 519.251 650.481 523.219 650.14 526.12C649.799 528.936 649.244 531.155 648.476 532.776C647.793 534.397 646.94 535.635 645.916 536.488C644.892 537.256 643.697 538.024 642.332 538.792V539.56C642.844 539.987 643.356 540.456 643.868 540.968C644.465 541.48 644.977 542.333 645.404 543.528C646.087 545.064 646.769 547.411 647.452 550.568C648.22 553.64 648.945 557.992 649.628 563.624C650.14 567.549 650.524 570.707 650.78 573.096C651.036 575.485 651.249 577.405 651.42 578.856C651.676 580.307 651.847 581.416 651.932 582.184C652.103 582.952 652.316 583.677 652.572 584.36V585H631.196ZM625.18 529.192C627.057 529.192 628.38 528.424 629.148 526.888C629.916 525.267 630.3 522.195 630.3 517.672C630.3 513.832 629.831 511.272 628.892 509.992C628.039 508.712 626.631 508.072 624.668 508.072H619.548V529.192H625.18ZM746.672 547.88C746.928 550.952 747.056 553.853 747.056 556.584C747.056 561.704 746.757 566.184 746.16 570.024C745.648 573.779 744.496 576.893 742.704 579.368C740.912 581.843 738.352 583.677 735.024 584.872C731.781 586.067 727.472 586.664 722.096 586.664C715.696 586.664 710.789 586.109 707.376 585C704.048 583.805 701.573 581.715 699.952 578.728C699.099 577.363 698.373 575.741 697.776 573.864C697.179 571.987 696.667 569.469 696.24 566.312C695.899 563.155 695.643 559.144 695.472 554.28C695.301 549.416 695.216 543.229 695.216 535.72C695.216 528.211 695.301 522.109 695.472 517.416C695.643 512.723 695.899 508.883 696.24 505.896C696.667 502.909 697.179 500.563 697.776 498.856C698.373 497.149 699.099 495.571 699.952 494.12C701.659 491.219 704.133 489.213 707.376 488.104C710.619 486.995 715.312 486.44 721.456 486.44C726.917 486.44 731.312 486.952 734.64 487.976C737.968 489 740.528 490.664 742.32 492.968C744.112 495.272 745.307 498.259 745.904 501.928C746.501 505.512 746.8 509.864 746.8 514.984C746.8 516.179 746.757 517.501 746.672 518.952C746.672 520.403 746.629 521.939 746.544 523.56H727.728C727.728 521 727.685 518.867 727.6 517.16C727.6 515.453 727.557 514.045 727.472 512.936C727.387 511.827 727.259 510.973 727.088 510.376C727.003 509.693 726.917 509.139 726.832 508.712C726.491 507.091 724.699 506.28 721.456 506.28C719.835 506.28 718.64 506.493 717.872 506.92C717.189 507.261 716.72 507.859 716.464 508.712C716.208 509.395 715.995 510.205 715.824 511.144C715.739 511.997 715.611 513.363 715.44 515.24C715.355 517.032 715.269 519.549 715.184 522.792C715.184 526.035 715.184 530.259 715.184 535.464C715.184 540.84 715.184 545.149 715.184 548.392C715.269 551.635 715.355 554.195 715.44 556.072C715.611 557.949 715.739 559.357 715.824 560.296C715.995 561.235 716.208 562.045 716.464 562.728C716.72 563.581 717.232 564.179 718 564.52C718.768 564.861 720.133 565.032 722.096 565.032C724.656 565.032 726.192 564.307 726.704 562.856C727.045 562.003 727.301 561.107 727.472 560.168C727.643 559.229 727.771 558.205 727.856 557.096C727.941 555.901 727.984 554.579 727.984 553.128C728.069 551.592 728.112 549.843 728.112 547.88H746.672ZM807.107 578.728C806.254 580.264 805.23 581.544 804.035 582.568C802.926 583.507 801.518 584.317 799.811 585C798.104 585.597 796.099 586.024 793.795 586.28C791.491 586.536 788.803 586.664 785.731 586.664C779.502 586.664 774.766 586.109 771.523 585C768.366 583.805 765.934 581.715 764.227 578.728C763.374 577.277 762.648 575.699 762.051 573.992C761.454 572.2 760.942 569.811 760.515 566.824C760.174 563.837 759.918 559.955 759.747 555.176C759.576 550.312 759.491 544.083 759.491 536.488C759.491 528.893 759.576 522.707 759.747 517.928C759.918 513.149 760.174 509.267 760.515 506.28C760.942 503.293 761.454 500.947 762.051 499.24C762.648 497.533 763.374 495.912 764.227 494.376C765.08 492.925 766.062 491.688 767.171 490.664C768.366 489.64 769.816 488.829 771.523 488.232C773.23 487.549 775.235 487.08 777.539 486.824C779.928 486.568 782.659 486.44 785.731 486.44C791.875 486.44 796.526 487.037 799.683 488.232C802.926 489.427 805.4 491.475 807.107 494.376C807.96 495.912 808.686 497.533 809.283 499.24C809.88 500.947 810.35 503.293 810.691 506.28C811.118 509.267 811.416 513.149 811.587 517.928C811.758 522.707 811.843 528.893 811.843 536.488C811.843 544.083 811.758 550.312 811.587 555.176C811.416 559.955 811.118 563.837 810.691 566.824C810.35 569.811 809.88 572.2 809.283 573.992C808.686 575.699 807.96 577.277 807.107 578.728ZM790.723 562.728C790.894 562.131 791.064 561.363 791.235 560.424C791.406 559.485 791.534 558.077 791.619 556.2C791.704 554.323 791.747 551.805 791.747 548.648C791.832 545.405 791.875 541.181 791.875 535.976C791.875 530.6 791.832 526.291 791.747 523.048C791.747 519.805 791.704 517.245 791.619 515.368C791.534 513.405 791.406 511.955 791.235 511.016C791.064 510.077 790.894 509.309 790.723 508.712C790.382 507.859 789.87 507.261 789.187 506.92C788.504 506.493 787.352 506.28 785.731 506.28C784.11 506.28 782.915 506.493 782.147 506.92C781.464 507.261 780.995 507.859 780.739 508.712C780.483 509.309 780.27 510.077 780.099 511.016C780.014 511.955 779.886 513.405 779.715 515.368C779.63 517.245 779.544 519.805 779.459 523.048C779.459 526.291 779.459 530.6 779.459 535.976C779.459 541.181 779.459 545.405 779.459 548.648C779.544 551.805 779.63 554.323 779.715 556.2C779.886 558.077 780.014 559.485 780.099 560.424C780.27 561.363 780.483 562.131 780.739 562.728C780.995 563.581 781.464 564.179 782.147 564.52C782.915 564.861 784.11 565.032 785.731 565.032C787.352 565.032 788.504 564.861 789.187 564.52C789.87 564.179 790.382 563.581 790.723 562.728ZM883.411 585V526.888H882.643L867.923 585H859.091L844.243 526.888H843.475V585H825.171V488.104H853.587L862.547 530.216H863.443L873.427 488.104H901.715L901.843 585H883.411ZM974.686 585V526.888H973.918L959.198 585H950.366L935.518 526.888H934.75V585H916.446V488.104H944.862L953.822 530.216H954.718L964.702 488.104H992.99L993.118 585H974.686ZM1039.34 488.104H1059.31V555.176C1059.22 559.187 1059.05 562.515 1058.79 565.16C1058.54 567.805 1058.2 570.024 1057.77 571.816C1057.43 573.608 1057 575.101 1056.49 576.296C1055.98 577.405 1055.38 578.515 1054.7 579.624C1053.84 580.989 1052.82 582.141 1051.63 583.08C1050.52 583.933 1049.11 584.616 1047.4 585.128C1045.69 585.725 1043.69 586.109 1041.39 586.28C1039.08 586.536 1036.39 586.664 1033.32 586.664C1027.09 586.664 1022.36 586.152 1019.11 585.128C1015.87 584.189 1013.44 582.355 1011.82 579.624C1011.13 578.515 1010.49 577.405 1009.9 576.296C1009.3 575.101 1008.79 573.608 1008.36 571.816C1007.93 570.024 1007.59 567.805 1007.34 565.16C1007.17 562.515 1007.08 559.187 1007.08 555.176V488.104H1027.69V555.176C1027.69 557.48 1027.73 559.272 1027.82 560.552C1027.99 561.832 1028.29 562.813 1028.71 563.496C1029.14 564.179 1029.74 564.605 1030.51 564.776C1031.27 564.947 1032.3 565.032 1033.58 565.032C1034.86 565.032 1035.84 564.947 1036.52 564.776C1037.29 564.605 1037.89 564.179 1038.31 563.496C1038.74 562.813 1039 561.832 1039.08 560.552C1039.25 559.272 1039.34 557.48 1039.34 555.176V488.104ZM1115.36 585L1092.45 533.032H1091.68V585H1073.37V488.104H1093.09L1106.65 521.768H1107.42V488.104H1125.85V585H1115.36ZM1140.91 585V488.104H1161.52V585H1140.91ZM1189.47 585V508.584H1174.24V488.104H1224.8V508.584H1209.57V585H1189.47ZM1252.28 585V549.672L1234.61 488.744V488.104H1255.35C1256.71 494.163 1257.78 499.027 1258.55 502.696C1259.4 506.28 1260.04 509.181 1260.47 511.4C1260.98 513.533 1261.36 515.155 1261.62 516.264C1261.88 517.373 1262.09 518.44 1262.26 519.464H1263.54C1263.71 518.44 1263.92 517.373 1264.18 516.264C1264.44 515.155 1264.78 513.533 1265.2 511.4C1265.72 509.181 1266.4 506.28 1267.25 502.696C1268.11 499.027 1269.26 494.163 1270.71 488.104H1290.8V488.744L1273.91 549.416V585H1252.28ZM1292.62 603.176V602.408L1298.89 584.872L1298.51 583.72H1291.85V565.672H1311.95V584.488L1302.35 603.176H1292.62ZM1387.06 488.104H1407.67V535.08C1407.67 542.419 1407.59 548.563 1407.42 553.512C1407.25 558.461 1406.95 562.6 1406.52 565.928C1406.18 569.171 1405.71 571.773 1405.11 573.736C1404.6 575.699 1403.92 577.363 1403.06 578.728C1402.21 580.179 1401.19 581.416 1399.99 582.44C1398.8 583.464 1397.3 584.317 1395.51 585C1393.81 585.597 1391.72 586.024 1389.24 586.28C1386.85 586.536 1384.08 586.664 1380.92 586.664C1375.54 586.664 1371.19 586.067 1367.86 584.872C1364.62 583.677 1362.1 581.843 1360.31 579.368C1358.52 576.893 1357.33 573.779 1356.73 570.024C1356.22 566.184 1355.96 561.704 1355.96 556.584C1355.96 553.853 1356.09 550.952 1356.34 547.88H1374.26C1374.26 549.843 1374.26 551.592 1374.26 553.128C1374.35 554.579 1374.44 555.901 1374.52 557.096C1374.61 558.205 1374.73 559.229 1374.9 560.168C1375.08 561.107 1375.29 562.003 1375.54 562.856C1376.14 564.307 1377.68 565.032 1380.15 565.032C1382.12 565.032 1383.48 564.861 1384.25 564.52C1385.02 564.179 1385.57 563.581 1385.91 562.728C1386.08 562.045 1386.25 561.235 1386.42 560.296C1386.6 559.357 1386.72 557.949 1386.81 556.072C1386.89 554.195 1386.94 551.677 1386.94 548.52C1387.02 545.277 1387.06 540.968 1387.06 535.592V488.104ZM1468.01 578.728C1467.15 580.264 1466.13 581.544 1464.93 582.568C1463.83 583.507 1462.42 584.317 1460.71 585C1459 585.597 1457 586.024 1454.69 586.28C1452.39 586.536 1449.7 586.664 1446.63 586.664C1440.4 586.664 1435.67 586.109 1432.42 585C1429.27 583.805 1426.83 581.715 1425.13 578.728C1424.27 577.277 1423.55 575.699 1422.95 573.992C1422.35 572.2 1421.84 569.811 1421.41 566.824C1421.07 563.837 1420.82 559.955 1420.65 555.176C1420.48 550.312 1420.39 544.083 1420.39 536.488C1420.39 528.893 1420.48 522.707 1420.65 517.928C1420.82 513.149 1421.07 509.267 1421.41 506.28C1421.84 503.293 1422.35 500.947 1422.95 499.24C1423.55 497.533 1424.27 495.912 1425.13 494.376C1425.98 492.925 1426.96 491.688 1428.07 490.664C1429.27 489.64 1430.72 488.829 1432.42 488.232C1434.13 487.549 1436.13 487.08 1438.44 486.824C1440.83 486.568 1443.56 486.44 1446.63 486.44C1452.77 486.44 1457.43 487.037 1460.58 488.232C1463.83 489.427 1466.3 491.475 1468.01 494.376C1468.86 495.912 1469.59 497.533 1470.18 499.24C1470.78 500.947 1471.25 503.293 1471.59 506.28C1472.02 509.267 1472.32 513.149 1472.49 517.928C1472.66 522.707 1472.74 528.893 1472.74 536.488C1472.74 544.083 1472.66 550.312 1472.49 555.176C1472.32 559.955 1472.02 563.837 1471.59 566.824C1471.25 569.811 1470.78 572.2 1470.18 573.992C1469.59 575.699 1468.86 577.277 1468.01 578.728ZM1451.62 562.728C1451.79 562.131 1451.96 561.363 1452.13 560.424C1452.31 559.485 1452.43 558.077 1452.52 556.2C1452.6 554.323 1452.65 551.805 1452.65 548.648C1452.73 545.405 1452.77 541.181 1452.77 535.976C1452.77 530.6 1452.73 526.291 1452.65 523.048C1452.65 519.805 1452.6 517.245 1452.52 515.368C1452.43 513.405 1452.31 511.955 1452.13 511.016C1451.96 510.077 1451.79 509.309 1451.62 508.712C1451.28 507.859 1450.77 507.261 1450.09 506.92C1449.4 506.493 1448.25 506.28 1446.63 506.28C1445.01 506.28 1443.81 506.493 1443.05 506.92C1442.36 507.261 1441.89 507.859 1441.64 508.712C1441.38 509.309 1441.17 510.077 1441 511.016C1440.91 511.955 1440.79 513.405 1440.61 515.368C1440.53 517.245 1440.44 519.805 1440.36 523.048C1440.36 526.291 1440.36 530.6 1440.36 535.976C1440.36 541.181 1440.36 545.405 1440.36 548.648C1440.44 551.805 1440.53 554.323 1440.61 556.2C1440.79 558.077 1440.91 559.485 1441 560.424C1441.17 561.363 1441.38 562.131 1441.64 562.728C1441.89 563.581 1442.36 564.179 1443.05 564.52C1443.81 564.861 1445.01 565.032 1446.63 565.032C1448.25 565.032 1449.4 564.861 1450.09 564.52C1450.77 564.179 1451.28 563.581 1451.62 562.728ZM1486.58 585V488.104H1507.19V585H1486.58ZM1564.46 585L1541.55 533.032H1540.78V585H1522.47V488.104H1542.19L1555.75 521.768H1556.52V488.104H1574.95V585H1564.46ZM739.533 739L716.621 687.032H715.853V739H697.549V642.104H717.261L730.829 675.768H731.597V642.104H750.029V739H739.533ZM810.907 732.728C810.054 734.264 809.03 735.544 807.835 736.568C806.726 737.507 805.318 738.317 803.611 739C801.904 739.597 799.899 740.024 797.595 740.28C795.291 740.536 792.603 740.664 789.531 740.664C783.302 740.664 778.566 740.109 775.323 739C772.166 737.805 769.734 735.715 768.027 732.728C767.174 731.277 766.448 729.699 765.851 727.992C765.254 726.2 764.742 723.811 764.315 720.824C763.974 717.837 763.718 713.955 763.547 709.176C763.376 704.312 763.291 698.083 763.291 690.488C763.291 682.893 763.376 676.707 763.547 671.928C763.718 667.149 763.974 663.267 764.315 660.28C764.742 657.293 765.254 654.947 765.851 653.24C766.448 651.533 767.174 649.912 768.027 648.376C768.88 646.925 769.862 645.688 770.971 644.664C772.166 643.64 773.616 642.829 775.323 642.232C777.03 641.549 779.035 641.08 781.339 640.824C783.728 640.568 786.459 640.44 789.531 640.44C795.675 640.44 800.326 641.037 803.483 642.232C806.726 643.427 809.2 645.475 810.907 648.376C811.76 649.912 812.486 651.533 813.083 653.24C813.68 654.947 814.15 657.293 814.491 660.28C814.918 663.267 815.216 667.149 815.387 671.928C815.558 676.707 815.643 682.893 815.643 690.488C815.643 698.083 815.558 704.312 815.387 709.176C815.216 713.955 814.918 717.837 814.491 720.824C814.15 723.811 813.68 726.2 813.083 727.992C812.486 729.699 811.76 731.277 810.907 732.728ZM794.523 716.728C794.694 716.131 794.864 715.363 795.035 714.424C795.206 713.485 795.334 712.077 795.419 710.2C795.504 708.323 795.547 705.805 795.547 702.648C795.632 699.405 795.675 695.181 795.675 689.976C795.675 684.6 795.632 680.291 795.547 677.048C795.547 673.805 795.504 671.245 795.419 669.368C795.334 667.405 795.206 665.955 795.035 665.016C794.864 664.077 794.694 663.309 794.523 662.712C794.182 661.859 793.67 661.261 792.987 660.92C792.304 660.493 791.152 660.28 789.531 660.28C787.91 660.28 786.715 660.493 785.947 660.92C785.264 661.261 784.795 661.859 784.539 662.712C784.283 663.309 784.07 664.077 783.899 665.016C783.814 665.955 783.686 667.405 783.515 669.368C783.43 671.245 783.344 673.805 783.259 677.048C783.259 680.291 783.259 684.6 783.259 689.976C783.259 695.181 783.259 699.405 783.259 702.648C783.344 705.805 783.43 708.323 783.515 710.2C783.686 712.077 783.814 713.485 783.899 714.424C784.07 715.363 784.283 716.131 784.539 716.728C784.795 717.581 785.264 718.179 785.947 718.52C786.715 718.861 787.91 719.032 789.531 719.032C791.152 719.032 792.304 718.861 792.987 718.52C793.67 718.179 794.182 717.581 794.523 716.728ZM877.641 739L870.985 679.608H869.577L862.409 739H833.993L825.417 642.104H845.769L850.121 708.024H851.529L860.361 642.104H880.585L889.545 708.024H890.953L895.177 642.104H914.377L906.057 739H877.641ZM919.877 739V719.672H939.973V739H919.877Z" fill="black"/>
</svg>
