<svg width="181" height="91" viewBox="0 0 181 91" fill="none" xmlns="http://www.w3.org/2000/svg">
<rect x="1.5" y="1.5" width="178" height="88" rx="18.5" fill="#E71731" stroke="black" stroke-width="3"/>
<path d="M2 69.5V40.692C2 24.0851 21.069 14.7127 34.2173 24.8573L71.555 53.6653C86.6632 65.322 78.42 89.5 59.3377 89.5H22C10.9543 89.5 2 80.5457 2 69.5Z" fill="#304F7D"/>
<path d="M64.5193 46.0001L72.827 42.3655V33.0193L82.1731 38.2116L90.4808 34.577L72.827 24.1924L64.5193 28.3462V46.0001Z" fill="white"/>
<path d="M118 28.3462L110.731 24.7115L101.385 29.9039L107.615 33.0192L64 53.2692V63.6539L70.75 66.7692L80.6154 62.6154L74.3846 58.9808L118 39.25V28.3462Z" fill="white"/>
<path d="M118 62.6154V46L110.212 49.1154V58.4615L100.346 53.7885L92.0386 58.4615L110.212 67.2885L118 62.6154Z" fill="white"/>
<path d="M91.5193 67.8078L86.8462 65.7308L78.0193 69.8847L91.5193 77.1539L105.019 69.8847L97.2308 65.7308L91.5193 67.8078Z" fill="white"/>
<path d="M91.5193 14.8462L78.0193 21.5962L86.327 26.7885L91.5193 24.1923L95.6731 26.7885L105.019 22.6347L91.5193 14.8462Z" fill="white"/>
</svg>
