<svg width="181" height="91" viewBox="0 0 181 91" fill="none" xmlns="http://www.w3.org/2000/svg">
<rect x="1.5" y="1.5" width="178" height="88" rx="18.5" fill="#E71731" stroke="black" stroke-width="3"/>
<path d="M2 69.5V40.692C2 24.0851 21.069 14.7127 34.2173 24.8573L71.555 53.6653C86.6632 65.322 78.42 89.5 59.3377 89.5H22C10.9543 89.5 2 80.5457 2 69.5Z" fill="#304F7D"/>
<path d="M101.689 71.5573L85.9931 48.7528L83.758 45.5066L65.5449 19.0447H73.3794L88.1084 40.4451L90.3434 43.6913L109.523 71.5573H101.689ZM112.762 69.3297L92.9932 40.6095L90.7582 37.3613L76.6167 16.8167L75.4447 15.1141H58.0679L62.3058 21.2723L81.1083 48.5919L83.3434 51.8367L98.451 73.7873L99.6232 75.4879H117L112.762 69.3297Z" fill="white"/>
<path d="M83.758 45.5066L85.9932 48.7528L83.3435 51.8367L63.0133 75.4879H58L81.1084 48.5919L83.758 45.5066Z" fill="white"/>
<path d="M114.908 15.1142L92.9932 40.6096L90.3435 43.6914L88.1085 40.4452L90.7582 37.3614L105.603 20.0829L109.895 15.1142H114.908Z" fill="white"/>
</svg>
