<svg width="181" height="91" viewBox="0 0 181 91" fill="none" xmlns="http://www.w3.org/2000/svg">
<rect x="1.5" y="1.5" width="178" height="88" rx="18.5" fill="#E71731" stroke="black" stroke-width="3"/>
<path d="M2 69.5V40.692C2 24.0851 21.069 14.7127 34.2173 24.8573L71.555 53.6653C86.6632 65.322 78.42 89.5 59.3377 89.5H22C10.9543 89.5 2 80.5457 2 69.5Z" fill="#304F7D"/>
<path d="M121.876 21.1235C121.65 20.4581 121.381 20.283 120.96 20.1167C120.039 19.7752 118.48 20.2918 118.48 20.2918C118.48 20.2918 63.2807 40.1476 60.1272 42.345C59.4482 42.8178 59.2207 43.0979 59.1079 43.4219C58.5627 44.9802 60.2611 45.6718 60.2611 45.6718L74.4886 50.3119C74.4886 50.3119 75.0189 50.3906 75.2079 50.2681C78.4445 48.2195 107.772 29.6944 109.463 29.0728C109.73 28.994 109.928 29.0816 109.875 29.2654C109.198 31.6467 83.726 54.2953 83.726 54.2953C83.726 54.2953 83.6289 54.4178 83.5677 54.5579L83.5344 54.5404L82.207 68.6618C82.207 68.6618 81.6505 72.9867 85.9739 68.6618C89.0242 65.6064 91.9755 63.05 93.4525 61.8156C98.3447 65.1949 103.61 68.9332 105.882 70.8855C107.023 71.8661 107.978 72.0236 108.763 71.9974C110.92 71.9186 111.522 69.5461 111.522 69.5461C111.522 69.5461 121.581 29.0378 121.917 23.6098C121.95 23.0758 121.996 22.7431 121.999 22.3754C122.006 21.8676 121.958 21.3599 121.876 21.1235Z" fill="white"/>
</svg>
